<?xml version="1.0" encoding="utf-8"?>
<!-- Generator: Adobe Illustrator 20.0.0, SVG Export Plug-In . SVG Version: 6.00 Build 0)  -->
<svg version="1.1" id="Layer_1" xmlns="http://www.w3.org/2000/svg" xmlns:xlink="http://www.w3.org/1999/xlink" x="0px" y="0px"
	 viewBox="0 0 395.8 415.7" style="enable-background:new 0 0 395.8 415.7;" xml:space="preserve">
<style type="text/css">
	.st0{fill:#A6120D;}
	.st1{fill:#DD1B16;}
	.st2{fill:#F2F2F2;}
	.st3{fill:#B3B3B3;}
	.st4{fill:#C8C8C8;}
</style>
<title>angularjs-de-logo</title>
<desc>Created with Sketch.</desc>
<g id="AngularJS.DE" transform="translate(-58.000000, -60.000000)">
	<g id="angularjs-de-logo" transform="translate(38.136525, 54.068262)">
		<polygon id="Shape" class="st0" points="408.7,80.2 215.6,13.8 215.6,413.6 377.9,328.5 		"/>
		<polygon id="Shape_1_" class="st1" points="26.9,82.1 55.8,329.6 215.6,413.6 215.6,14.4 		"/>
		<path id="Shape_2_" class="st2" d="M269,233.9l-53.3,23.6h-56.2L133,320.1L83.9,321L215.6,43.4L269,233.9L269,233.9z M263.8,222
			L216,132.4l-39.2,88.1h38.9L263.8,222L263.8,222z"/>
		<polygon id="Shape_3_" class="st3" points="215.6,43.4 216,132.4 260.5,220.6 215.7,220.6 215.6,257.5 277.5,257.6 306.4,321 
			353.4,321.8 		"/>
		<g id="DE" transform="translate(132.000000, 253.000000)">
			<polygon id="E" class="st4" points="98.9,57.7 134.9,57.7 134.9,67.5 110.7,67.5 110.7,79 132.7,79 132.7,88.8 110.7,88.8 
				110.7,100.8 135.3,100.8 135.3,110.6 98.9,110.6 			"/>
			<path id="D" class="st2" d="M29.4,57.7c1.1-0.2,2.3-0.3,3.7-0.4c1.4-0.1,2.8-0.2,4.3-0.2s2.9-0.1,4.4-0.1c1.4,0,2.7,0,3.8,0
				c4.9,0,9.1,0.7,12.6,2c3.5,1.3,6.4,3.2,8.6,5.6c2.2,2.4,3.8,5.2,4.9,8.5c1,3.3,1.5,6.9,1.5,10.7c0,3.5-0.5,7-1.5,10.3
				c-1,3.3-2.6,6.3-4.9,8.9s-5.2,4.7-8.8,6.2s-8.1,2.3-13.3,2.3c-0.8,0-2,0-3.4-0.1c-1.4-0.1-2.9-0.1-4.5-0.2
				c-1.5-0.1-3-0.2-4.3-0.2c-1.3-0.1-2.4-0.2-3-0.3V57.7z M46.8,67.9c-1,0-2.1,0-3.2,0c-1.1,0-1.9,0.1-2.5,0.2v32
				c0.2,0,0.6,0.1,1.1,0.1c0.5,0,1,0,1.5,0.1c0.5,0,1,0,1.5,0.1c0.5,0,0.8,0,1.1,0c2.9,0,5.3-0.5,7.2-1.4c1.9-0.9,3.4-2.2,4.5-3.7
				c1.1-1.6,1.9-3.3,2.4-5.3c0.5-2,0.7-4,0.7-6.1c0-1.7-0.2-3.6-0.6-5.4s-1.2-3.6-2.2-5.1c-1.1-1.6-2.5-2.8-4.3-3.8
				S49.6,67.9,46.8,67.9L46.8,67.9z"/>
		</g>
	</g>
</g>
</svg>
