<?xml version="1.0" encoding="utf-8"?>
<!-- Generator: Adobe Illustrator 20.0.0, SVG Export Plug-In . SVG Version: 6.00 Build 0)  -->
<svg version="1.0" xmlns="http://www.w3.org/2000/svg" xmlns:xlink="http://www.w3.org/1999/xlink" x="0px" y="0px"
	 viewBox="0 0 640 320" enable-background="new 0 0 640 320" xml:space="preserve">
<g id="Layer_1" display="none">
	<path id="path37627" display="inline" fill="#004A93" d="M161.8,163.9h-14.2l7.5-24.5L161.8,163.9z M141,188.7l4.4-14.9h18.1
		l4.4,14.9h15l-15.9-56.6c-0.9-3.7-2.7-4.9-6.6-4.9h-22.1v5.1h1.8c2.7,0,4,0.8,4,2.9c0,1.3,0,2.1-1.3,5.2l-15.9,48.4"/>
	<path id="path37629" display="inline" fill="#004A93" d="M202.1,188.7v-57c0-3-1.8-4.5-4.9-4.5h-13.7v5.1h0.9c2.7,0,4,1.1,4,3.5
		v52.9"/>
	<path id="path37631" display="inline" fill="#004A93" d="M226.9,188.7v-57c0-3-1.8-4.5-4.9-4.5h-13.7v5.1h0.9c2.7,0,4,1.1,4,3.5
		v52.9"/>
	<path id="path37633" display="inline" fill="#004A93" d="M252.1,132.6c0-4.1-3.1-6.5-8-6.5c-5.3,0-8,2.4-8,6.5c0,4.2,2.7,6.6,8,6.6
		C249,139.2,252.1,136.8,252.1,132.6 M251.6,188.7v-41.5c0-2.9-1.8-4.6-4.4-4.6h-13.7v5h0.9c2.7,0,3.5,1.1,3.5,3.6v37.4"/>
	<path id="path37635" display="inline" fill="#004A93" d="M284.4,166.3v9.2c-2.7,2.7-5.8,4.2-8.4,4.2s-4-1.3-4-4.7
		c0-3.8,0.9-5.3,4-6.5C278.2,167.6,280.4,167,284.4,166.3 M264.9,155.3l1.3-0.5c3.5-1.4,5.8-1.9,8.4-2.4c1.3-0.2,3.1-0.4,4-0.4
		c4.4,0,5.8,1.5,5.8,5.5v1.2c-6.2,1-8,1.4-11.5,2.1c-1.8,0.4-3.5,1-5.3,1.8c-5.8,2.3-8.4,6.7-8.4,13.7c0,8.7,3.5,12.9,11.5,12.9
		c3.1,0,6.2-0.7,8.4-2.1c2.2-1,3.1-1.5,5.8-4v1.4c0,2.9,1.3,4.2,4,4.2h13.3v-4.7h-0.4c-2.7,0-4-1.2-4-3.6v-22.6
		c0-11.8-4-15.8-15.5-15.8c-4,0-7.5,0.4-11.1,1.3c-3.5,0.8-5.3,1.5-9.3,3.5"/>
	<path id="path37637" display="inline" fill="#004A93" d="M322.9,188.7v-31.2c3.1-2.9,5.3-4,8.4-4s4,1.3,4,6v29.2H349v-31.4
		c0-6.5-0.9-9.2-2.7-11.7c-2.2-2.4-4.9-3.5-8.8-3.5c-5.3,0-9.3,1.9-15.5,7.3v-2.5c0-2.9-1.3-4.3-4-4.3h-13.3v5h0.4
		c2.7,0,4,1.1,4,3.6v37.4"/>
	<g display="inline">
		<defs>
			<rect id="SVGID_1_" x="126.9" y="110" width="386.3" height="100"/>
		</defs>
		<clipPath id="SVGID_2_">
			<use xlink:href="#SVGID_1_"  overflow="visible"/>
		</clipPath>
	</g>
	<path id="path37647" display="inline" fill="#004A93" d="M469.8,186.2V134c0-4.2-1.8-5.6-5.8-5.6h-11.9v5.8h1.3
		c2.2,0,3.1,0.8,3.1,3.4v48.5H469.8z M476.9,186.2h12.8v-39.3c0-4-1.8-5.6-5.8-5.6h-7.1V186.2z M449.4,186.2v-44.9h-7.1
		c-4,0-5.8,1.6-5.8,5.6v39.3H449.4z M504.7,160c0,24.4-17.7,42.2-41.6,42.2c-23.9,0-41.6-17.8-41.6-42.2c0-24.4,17.7-42.2,41.6-42.2
		C487,117.8,504.7,135.6,504.7,160 M513.1,160c0-28.5-21.2-50-50-50c-28.3,0-50,21.4-50,50c0,28.6,21.7,50,50,50
		C491.9,210,513.1,188.6,513.1,160"/>
	<path id="path37645" display="inline" fill="#004A93" d="M391.5,179.9h-20.4l19.5-27.8v-9.5h-29.2c-3.5,0-4.9,1.4-4.9,4.8v8.4h4.9
		v-0.9c0-2.5,1.3-3.5,4-3.5H376l-19.9,27.8v9.6h35.4"/>
</g>
<g id="Layer_2" display="none">
	<g id="layer1" transform="translate(-544.27348,-995.30113)" display="inline">
		<g id="g3651" transform="matrix(2.6667598,0,0,-2.6667598,-401.84366,3177.6898)">
			
				<radialGradient id="path201_1_" cx="296.1913" cy="654.2659" r="1.0189" gradientTransform="matrix(66.4069 0 0 -66.4069 -19091.9434 44195.1719)" gradientUnits="userSpaceOnUse">
				<stop  offset="0" style="stop-color:#FEDF33"/>
				<stop  offset="0.44" style="stop-color:#FBB809"/>
				<stop  offset="0.9" style="stop-color:#EE960D"/>
				<stop  offset="1" style="stop-color:#E17A10"/>
			</radialGradient>
			<path id="path201" fill="url(#path201_1_)" d="M571,772.6c-0.6,0-2.4,0-4.4-2.5l0,0c0,0,0.1-0.1,0.1-0.1l0,0
				c0.5,0.6,1.2,1.3,1.9,1.7l0,0c0.7,0.4,1.4,0.7,2.1,0.8l0,0c0.5,0.1,2,0,3.7,0l0,0c0,0,0,0,0,0l0,0l0,0.1c0,0,0,0,0,0l0,0H571z"/>
			
				<radialGradient id="path225_1_" cx="296.1887" cy="654.258" r="1.0189" gradientTransform="matrix(66.4557 0 0 -66.4557 -19112.8477 44251.7969)" gradientUnits="userSpaceOnUse">
				<stop  offset="0" style="stop-color:#FEDF33"/>
				<stop  offset="0.44" style="stop-color:#FBB809"/>
				<stop  offset="0.9" style="stop-color:#EE960D"/>
				<stop  offset="1" style="stop-color:#E17A10"/>
			</radialGradient>
			<path id="path225" fill="url(#path225_1_)" d="M559,772.6C559,772.6,559,772.6,559,772.6L559,772.6l-6.5-11.2l-2-3.5l-0.2-0.4
				l0-0.1c0,0,0,0,0,0l0,0l6.1-10.6v0c-0.1,0.2-0.2,0.4-0.3,0.6l0,0c-0.3,0.6-0.4,1.4-0.4,2.2l0,0c0.1,2.1,1.2,4.1,1.8,5l0,0
				c1.3,2.2,3.8,6.6,3.8,6.6l0,0c0,0,2.5,4.3,3.8,6.6l0,0c0.6,1,1.8,2.9,3.5,4l0,0c0.7,0.4,1.4,0.7,2.1,0.8l0,0
				c0.5,0.1,2,0.1,3.7,0.1l0,0H559z"/>
			
				<radialGradient id="path249_1_" cx="296.184" cy="654.2636" r="1.0189" gradientTransform="matrix(66.4293 0 0 -66.4293 -19123.209 44216.4766)" gradientUnits="userSpaceOnUse">
				<stop  offset="0" style="stop-color:#FEDF33"/>
				<stop  offset="0.44" style="stop-color:#FBB809"/>
				<stop  offset="0.9" style="stop-color:#EE960D"/>
				<stop  offset="1" style="stop-color:#E17A10"/>
			</radialGradient>
			<path id="path249" fill="url(#path249_1_)" d="M550.3,757.4c0.1-0.2,0.2-0.3,0.3-0.5l0,0L550.3,757.4z M581.2,754.2
				c-0.4-0.5-1-1-1.7-1.4l0,0c-1.8-0.9-4.1-1-5.2-1l0,0h-7.6h-7.6c-1.1,0-3.4,0.1-5.2,1l0,0c-0.7,0.4-1.3,0.9-1.7,1.4l0,0
				c-0.2,0.3-0.8,1.4-1.6,2.6l0,0l1.5-2.7l5.8-10c0,0,0,0,0,0l0,0h17.5c0,0,0,0,0,0l0,0l7.6,13.2
				C582.2,755.9,581.4,754.6,581.2,754.2"/>
			
				<radialGradient id="path273_1_" cx="296.1881" cy="654.262" r="1.0189" gradientTransform="matrix(66.6153 0 0 -66.6153 -19153.4648 44331.1914)" gradientUnits="userSpaceOnUse">
				<stop  offset="0" style="stop-color:#FEDF33"/>
				<stop  offset="0.44" style="stop-color:#FBB809"/>
				<stop  offset="0.9" style="stop-color:#EE960D"/>
				<stop  offset="1" style="stop-color:#D87301"/>
			</radialGradient>
			<path id="path273" fill="url(#path273_1_)" d="M570.6,772.6c-0.6-0.1-1.4-0.3-2.1-0.8l0,0c-0.7-0.5-1.4-1.1-1.9-1.7l0,0
				c0.7-0.9,1.3-1.8,1.6-2.3l0,0c1.3-2.2,3.8-6.6,3.8-6.6l0,0c0,0,2.5-4.3,3.8-6.6l0,0c0.5-1,1.6-3,1.7-5l0,0c0-0.8-0.1-1.6-0.4-2.2
				l0,0c-0.2-0.4-0.9-1.6-1.7-3.1l0,0l7.6,13.1c0,0,0,0,0,0l0,0v0c0,0,0,0,0,0l0,0l-8.7,15.1c0,0,0,0,0,0l0,0
				C572.6,772.6,571.1,772.6,570.6,772.6"/>
			<path id="path177" d="M374.2,764.9c-4.3,0-7.8-3.6-7.8-8c0-4.7,3.4-7.9,7.6-7.9c2.4,0,4.2,0.9,5.7,2.5l-2.1,2.1
				c-0.9-0.9-2-1.4-3.4-1.4c-2.4,0-4.1,2.1-4.1,4.8c0,2.7,1.7,4.8,4.1,4.8c1.2,0,2.3-0.5,3.2-1.3l2.2,2.2
				C378.2,764,376.4,764.9,374.2,764.9z M388.9,764.9c-4.6,0-8-3.6-8-8c0-4.5,3.3-7.9,7.9-7.9c4.6,0,8,3.6,8,8
				C396.8,761.4,393.6,764.9,388.9,764.9z M400.5,764.6l-1.5-15.4h3.2l0.7,8.3c0.1,1.6,0.2,3.3,0.2,3.3h0.1c0,0,0.4-1.7,0.8-3.2
				l2.6-8.4h3l2.6,8.5c0.5,1.5,0.8,3.1,0.8,3.1h0.1c0,0,0-1.7,0.2-3.3l0.7-8.3h3.4l-1.5,15.4h-4.5L409,757c-0.4-1.2-0.8-2.8-0.8-2.8
				s-0.4,1.6-0.8,2.9l-2.4,7.6H400.5z M422,764.6l-1.5-15.4h3.2l0.7,8.3c0.1,1.6,0.2,3.3,0.2,3.3h0.1c0,0,0.4-1.7,0.8-3.2l2.6-8.4h3
				l2.6,8.5c0.5,1.5,0.8,3.1,0.8,3.1h0.1c0,0,0-1.7,0.2-3.3l0.7-8.3h3.4l-1.5,15.4h-4.5l-2.3-7.6c-0.4-1.2-0.8-2.8-0.8-2.8
				s-0.4,1.6-0.8,2.9l-2.4,7.6H422z M442.5,764.6v-15.4h10v3h-6.6v3.4h5.6v2.9h-5.6v3.3h6.5v2.9H442.5z M456.4,764.6v-15.4h3.4v5.6
				h1l3.3-5.6h4l-3.8,6.2c2,0.7,3.1,2.3,3.1,4.3c0,3.1-1.8,4.9-6.4,4.9H456.4z M470.2,764.6v-2.9h6.2l-6.4-9.9v-2.5h10.7v3h-6.5
				l6.4,9.9v2.5H470.2z M484.3,764.6v-15.4h5.9c2.7,0,5.8,1.2,5.8,4.4c0,2-1.3,3.3-3.3,3.6v0c1.6,0.5,2.6,1.7,2.6,3.4
				c0,3.3-2.9,3.9-5.6,3.9H484.3z M502.5,764.6l-5.5-15.4h3.4l1.1,3.1h6l1.1-3.1h3.6l-5.5,15.4H502.5z M514.2,764.6v-15.4h3.1v7.3
				c0,1.4-0.1,2.8-0.1,2.8s0.7-1.2,1.5-2.4l5.2-7.7h3v15.4h-3.1v-7c0-1.4,0.1-2.8,0.1-2.8s-0.7,1.2-1.5,2.4l-5,7.3H514.2z
				 M530.7,764.6v-15.4h3.3v7.2l4.9-7.2h4.1l-5.7,8.3l5.1,7.1h-3.9l-4.6-6.9v6.9H530.7z M388.8,761.7c2.7,0,4.4-2.1,4.4-4.8
				c0-2.6-1.6-4.8-4.4-4.8c-2.7,0-4.4,2.1-4.4,4.8C384.5,759.5,386.1,761.7,388.8,761.7z M459.8,761.7h1.4c1.8,0,2.8-0.5,2.8-2
				c0-1.4-1-2.1-2.8-2.1h-1.4V761.7z M487.6,761.7h1.9c1.1,0,2.1-0.3,2.1-1.6c0-1.2-0.9-1.7-2-1.7h-2.1V761.7z M504.5,761.5
				c0,0,0.3-1,0.7-2.2l1.4-4.1h-4l1.4,4.1C504.2,760.5,504.5,761.5,504.5,761.5z M487.6,755.6h2.5c1.5,0,2.5-0.5,2.5-1.7
				c0-1.2-0.8-1.8-2.5-1.8h-2.5V755.6z"/>
		</g>
	</g>
</g>
<g id="Layer_3" display="none">
	<g display="inline">
		<g id="xfrm58_1_" transform="matrix(0.335998,0,0,0.335998,407.9057,266.2093)">
			<path id="path3190_1_" fill="#EC1B24" d="M-620.7-276.1c0-11.9-8.8-20.2-27.3-20.2h-37v40.7h37.9
				C-631.6-255.6-620.7-261.1-620.7-276.1z M-627.3-356.8c0-11.6-7.9-19.6-19.7-19.6H-685v38.5h37
				C-634.6-337.8-627.3-347.6-627.3-356.8z M-565.5-270.2c0,34.9-32.1,57.8-64.6,57.8h-105.8v-207h97c37.3,0,64.3,18.6,64.3,56.9
				c0,32.7-28.5,42.5-28.5,42.5C-603.1-319.8-565.5-311.2-565.5-270.2"/>
		</g>
		<g id="xfrm60_1_" transform="matrix(0.335998,0,0,0.335998,407.9057,266.2093)">
			<path id="path3194_1_" fill="#EC1B24" d="M-407.1-316.1c0-32.4-14.9-58.7-44.2-58.7c-29.4,0-44,26.3-44,58.7
				c0,32.7,14.6,59,44,59C-422-257.1-407.1-283.4-407.1-316.1z M-356.2-316.1c0,60.8-34.9,108.5-95.2,108.5
				c-60,0-95.2-47.7-95.2-108.5c0-60.5,35.2-108.5,95.2-108.5C-391.1-424.6-356.2-376.6-356.2-316.1"/>
		</g>
		<g id="xfrm62_1_" transform="matrix(0.335998,0,0,0.335998,407.9057,266.2093)">
			<path id="path3198_1_" fill="#EC1B24" d="M-178.4-275.1c0,45.6-41.2,67.6-80,67.6c-44.9,0-67.9-17.1-86.1-38.8l33-32.4
				c14,17.7,32.2,26.6,52.5,26.6c16.7,0,27.9-8.3,27.9-20.5c0-13.1-9.9-17.2-37-22.9l-7.3-1.5c-32.6-6.9-59.4-25.4-59.4-62.4
				c0-40.7,33.1-65.1,76.7-65.1c37,0,60.9,15.9,75.5,32.4l-32.2,31.8c-10-10.7-25.2-19.3-42.4-19.3c-11.8,0-25.2,5.5-25.2,19.3
				c0,12.5,13.9,17.1,31.5,20.8l7.3,1.5C-214.1-331.9-178.4-322.8-178.4-275.1"/>
		</g>
		<g id="xfrm64_1_" transform="matrix(0.335998,0,0,0.335998,407.9057,266.2093)">
			<path id="path3202_1_" fill="#EC1B24" d="M18.5-252.5c-21.2,30.6-40.9,44.9-81.8,44.9c-58.2,0-95.8-48.3-95.8-109.8
				c0-58.4,34-107,96.4-107c34.3,0,58.8,13.5,79.7,44.9l-41.8,27.8c-8.5-14.7-19.4-23.2-37.6-23.2c-23,0-45.2,20.6-45.2,57.5
				c0,41.3,24,60.2,46.7,60.2c19.7,0,28.8-9.8,37.3-23.8L18.5-252.5"/>
		</g>
		<g id="xfrm66_1_" transform="matrix(0.335998,0,0,0.335998,407.9057,266.2093)">
			<path id="path3206_1_" fill="#EC1B24" d="M212.6-212.5h-54.6v-81.6H95.3v81.6H41v-207h54.2v76.1h62.8v-76.1h54.6V-212.5"/>
		</g>
	</g>
</g>
<g id="Layer_4" display="none">
	<g id="g37" display="inline">
	</g>
	<path id="path55" display="inline" fill="#0452A7" d="M234,169.6h7.4c7.2,0,13-5.9,13-13v-17.8c0-7.2-5.9-13-13-13h-59.7v68.6h17.2
		v-55.6h36.4c1.1,0,2.1,0.9,2.1,2.1v16.5c0,1.1-0.9,2.1-2.1,2.1h-29.8c-0.8,0-1.4,0.6-1.4,1.4c0,0.4,0.2,0.7,0.4,1l32.7,32.7h21.5
		L234,169.6z M362.1,125.7L346,174.5l-16.1-48.8h-17.8L296,174.5L280,125.7h-17.8l25,68.6H305l16.1-48.8l16.1,48.8h17.8l25-68.6
		H362.1z M458.3,181.3v13h-68.6v-68.6h66.6v13h-49.4v14.1h34.3v13h-34.3v15.4"/>
</g>
<g id="Layer_5">
	<path id="path4226" inkscape:connector-curvature="0" fill="#FFCB00" d="M307.9,149.8c-7,0-10.3,5.6-10.3,19
		c0,13.4,3.1,18.9,10.1,18.9c7,0,10.1-5.5,10.1-18.9C317.9,155.4,314.9,149.8,307.9,149.8 M307.8,195.6c-13.2,0-23.3-7.4-23.3-26.8
		c0-19.3,10.1-26.8,23.3-26.8c13.2,0,23.3,7.4,23.3,26.8C331.1,188.1,321,195.5,307.8,195.6"/>
	<path id="path4230" inkscape:connector-curvature="0" fill="#FFCB00" d="M349.6,142.9l0.8,5.8c4.1-5.4,8.7-6.8,14.4-6.8
		c12.8,0,15,9.9,15,17.3l0,35.8l-12.4,0l0-31.6c0-4.6,0.5-13-7.4-13c-9,0-9.9,12.3-9.9,16.7l0,27.9l-12.4,0l0-52L349.6,142.9z"/>
	<path id="path4234" inkscape:connector-curvature="0" fill="#FFCB00" d="M408.9,187.5c9.5,0,9.5-15.8,9.5-18.8
		c0-6.3-0.7-18.4-9.1-18.4c-9.3,0-9.4,15.3-9.4,18.4C399.9,176.5,401,187.5,408.9,187.5 M430.8,125.5l0,69.4l-11,0l-0.4-8.9
		c-2.5,4.4-6.6,10-14.7,10c-12.1,0-17.9-12.5-17.9-27c0-18.9,9.6-27,18.6-27c8.8,0,12.1,6.7,13,8.8l0-25.2L430.8,125.5z"/>
	<path id="path4238" inkscape:connector-curvature="0" fill="#FFCB00" d="M460.9,149.8c-7,0-10.3,5.7-10.3,19
		c0,13.4,3.3,18.9,10.3,18.9c7,0,10.1-5.5,10.1-18.9C471,155.4,467.8,149.8,460.9,149.8 M460.9,195.6c-13.2,0-23.3-7.4-23.3-26.8
		c0-19.3,10.1-26.8,23.3-26.8c13.2,0,23.2,7.4,23.2,26.8C484,188.1,474.1,195.6,460.9,195.6"/>
	<path id="path4242" inkscape:connector-curvature="0" fill="#FFCB00" d="M501.7,142.9l0.3,12.9c4.1-12.7,10.6-13.8,13-13.8
		c2,0,3.9,0.5,4.9,0.8l-2.2,10.8c-0.9-0.2-2.4-0.6-4-0.6c-3.5,0-6.1,2.1-7.3,3.8c-2.5,3.5-3.6,7.4-3.6,19.4l0,18.6l-12.4,0l0-52
		L501.7,142.9z"/>
	<path id="path4246" inkscape:connector-curvature="0" fill="#FFCB00" d="M201.2,160.1c0-23.2-17.4-42-40.6-42
		c-23.2,0-40.6,18.8-40.6,42c0,23.2,17.4,41.8,40.6,41.8C183.8,201.9,201.2,183.2,201.2,160.1 M160.6,198.2c-21,0-36.8-17-36.8-38.1
		c0-21.1,15.8-38.2,36.8-38.2c21,0,36.8,17.2,36.8,38.2C197.4,181.2,181.6,198.2,160.6,198.2"/>
	<path id="path4250" inkscape:connector-curvature="0" fill="#FFCB00" d="M185.2,185.9l0-6.6l-27.3-24.8c-1.1-1-0.7-1.5,0.3-1.5
		c1.2,0,20.5,0,20.5,0l-10.3,8.3l3.8,3.6l21.5-16.7l-31.8,0c-4.3,0-5.8,0.1-6.8,0.4c-1,0.3-2.2,0.9-2.9,2.4c-0.5,1.1-0.5,3,0.2,4.2
		c1,1.7,2.6,3.2,6.8,7.6c-4.2-2.6-15.3-9.9-15.3-9.9s2.5,0,3.1,0c0-1.2,0-4.8,0-4.8l-19.7,0L185.2,185.9z"/>
	<path id="path4222" inkscape:connector-curvature="0" fill="#FFCB00" d="M266.4,195.7c-21,0-30.1-15.6-29.9-35.4
		c0.2-19.9,11.9-35.6,32.1-35.6c8.8,0,14.7,2.5,16.7,3.4l-2.5,8.9c-2.7-1.2-7.8-2.7-12.4-2.7c-8.8,0-19.1,5.2-19.2,25.4
		c-0.1,18.4,7.1,26.3,18.1,26.3c5.4,0,10.4-1.9,12.3-3l2.8,8.2C281.5,192.7,275.4,195.7,266.4,195.7"/>
</g>
</svg>
