<?xml version="1.0" encoding="utf-8"?>
<!-- Generator: Adobe Illustrator 20.0.0, SVG Export Plug-In . SVG Version: 6.00 Build 0)  -->
<svg version="1.1" xmlns="http://www.w3.org/2000/svg" xmlns:xlink="http://www.w3.org/1999/xlink" x="0px" y="0px"
	 viewBox="0 0 640 320" enable-background="new 0 0 640 320" xml:space="preserve">
	<path id="path55" fill="#0452A7" d="M234,169.6h7.4c7.2,0,13-5.9,13-13v-17.8c0-7.2-5.9-13-13-13h-59.7v68.6h17.2v-55.6h36.4
		c1.1,0,2.1,0.9,2.1,2.1v16.5c0,1.1-0.9,2.1-2.1,2.1h-29.8c-0.8,0-1.4,0.6-1.4,1.4c0,0.4,0.2,0.7,0.4,1l32.7,32.7h21.5L234,169.6z
		 M362.1,125.7L346,174.5l-16.1-48.8h-17.8L296,174.5L280,125.7h-17.8l25,68.6H305l16.1-48.8l16.1,48.8h17.8l25-68.6H362.1z
		 M458.3,181.3v13h-68.6v-68.6h66.6v13h-49.4v14.1h34.3v13h-34.3v15.4"/>
</svg>
