<svg width="359" height="355" fill="none" xmlns="http://www.w3.org/2000/svg"><g clip-path="url(#prefix__clip0)"><path d="M20.687 225.403c-7.36-22.933-9.484-47.139-5.237-72.053 1.84-10.333 4.671-20.242 7.785-30.293 0 0 19.535-64.125 85.642-93.428 0 0 22.791-12.032 57.048-12.881 0 0-4.672-4.53-7.644-6.512-16.138-10.758-40.203-14.297-54.783.85-4.388 4.53-8.069 9.484-12.174 14.014-4.671 5.096-10.334 9.342-16.845 11.749-5.662 2.123-11.325 1.699-17.129 2.69-5.945.99-12.032 3.114-16.845 6.936-5.237 4.246-7.36 9.909-7.927 16.42-.566 5.096-.425 10.334-.708 15.43-.707 15.005-5.52 19.252-16.279 27.604-4.53 3.397-8.352 7.927-11.183 12.74-8.493 15.005 5.096 30.576 5.804 45.723.142 3.114-.142 6.228-1.274 9.201-1.132 3.256-3.397 5.379-5.238 8.069-2.548 3.539-4.246 7.785-3.539 12.174.708 4.388 2.973 8.493 5.097 12.315 4.105 6.795 9.2 12.882 14.58 18.685.283 0 .566.284.85.567z" fill="#000"/><path d="M290.778 279.76c32.558-14.155 46.431-38.645 46.431-38.645 30.434-41.476 20.101-85.217 20.101-85.217-19.393 42.184-37.088 53.792-37.088 53.792 47.705-72.619.283-116.502.283-116.502 19.393 41.335-6.37 91.729-6.37 91.729-21.658 45.582-52.376 61.861-52.376 61.861 34.257 6.37 59.454-16.704 59.454-16.704-49.12 53.084-102.346 50.536-102.346 50.536 22.366 25.055 55.915 22.932 55.915 22.932-43.883 10.334-85.076-4.247-118.908-32.416-6.37-5.238-12.457-10.9-18.119-16.987 0 0-5.096-5.38-6.087-6.795l-.142-.142c-.707 26.188 26.613 50.536 26.613 50.536-34.257-14.155-49.969-44.873-49.969-44.873s-23.074-39.353-6.371-84.227c16.704-44.873 67.24-54.499 67.24-54.499 41.759 20.242 77.149 26.613 77.149 26.613 74.6 12.457 70.353-24.065 70.353-24.065.708-31.426-46.713-64.833-46.713-64.833-84.51-62.71-160.951-22.225-160.951-22.225-66.107 29.303-85.642 93.428-85.642 93.428-3.114 10.05-5.945 19.959-7.785 30.293-7.22 42.043 3.68 81.82 27.32 117.209 36.805 54.924 96.542 73.893 96.542 73.893 88.473 30.01 148.918-14.156 148.918-14.156 55.632-38.22 66.815-82.386 66.815-82.386-44.874 35.106-64.267 31.85-64.267 31.85zm-69.08-206.531a7.612 7.612 0 017.644 7.644 7.612 7.612 0 01-7.644 7.644 7.613 7.613 0 01-7.644-7.644 7.613 7.613 0 017.644-7.644z" fill="url(#prefix__paint0_linear)"/><path d="M316.4 116.545c.708-31.425-46.714-64.833-46.714-64.833-84.509-62.568-160.95-22.083-160.95-22.083-66.107 29.303-85.642 93.428-85.642 93.428-3.822 10.9-7.22 27.604-7.22 27.604-4.105 20.95-2.264 40.343-2.264 40.343 1.698 18.544 5.803 31.001 5.803 31.001 4.247 13.307 6.229 17.412 6.229 17.412-.142-.425-.85-3.539-.85-3.539s-5.945-28.594-.424-56.057c0 0 4.813-28.594 24.348-50.677 0 0 31.708-45.157 90.738-27.462 0 0 12.74 4.53 17.128 6.795 4.388 2.123 12.032 5.379 12.032 5.379 41.76 20.243 77.149 26.613 77.149 26.613 74.884 12.598 70.637-23.924 70.637-23.924zm-94.702-27.886a7.613 7.613 0 01-7.644-7.644 7.613 7.613 0 017.644-7.644 7.612 7.612 0 017.644 7.644 7.612 7.612 0 01-7.644 7.644z" fill="url(#prefix__paint1_radial)"/><path d="M173.285 59.64l-48.271-15.006c-.283 0-1.698-.707-4.246 0 0 0-28.453 7.22-23.499 22.791 0 0 2.973 9.767 11.042 19.252l53.084-2.548 11.89-24.49z" fill="url(#prefix__paint2_linear)"/></g><defs><linearGradient id="prefix__paint0_linear" x1="54.514" y1="327.891" x2="230.662" y2="140.501" gradientUnits="userSpaceOnUse"><stop stop-color="#E01D84"/><stop offset=".401" stop-color="#DF1D85"/><stop offset=".77" stop-color="#932C87"/><stop offset="1" stop-color="#5D2F88"/></linearGradient><linearGradient id="prefix__paint2_linear" x1="96.579" y1="65.494" x2="173.244" y2="65.494" gradientUnits="userSpaceOnUse"><stop stop-color="#E01D84"/><stop offset=".238" stop-color="#DA1E85"/><stop offset=".658" stop-color="#C72085"/><stop offset=".999" stop-color="#B52284"/></linearGradient><radialGradient id="prefix__paint1_radial" cx="0" cy="0" r="1" gradientUnits="userSpaceOnUse" gradientTransform="rotate(.137 -37894.145 104063.44) scale(172.108 143.917)"><stop stop-color="#E01D84"/><stop offset=".139" stop-color="#DE1E85"/><stop offset=".285" stop-color="#D62085"/><stop offset=".434" stop-color="#C92386"/><stop offset=".586" stop-color="#B72786"/><stop offset=".739" stop-color="#9D2B87"/><stop offset=".891" stop-color="#7C2E88"/><stop offset="1" stop-color="#5D2F88"/></radialGradient><clipPath id="prefix__clip0"><path fill="#fff" d="M0 .92h359v354H0z"/></clipPath></defs></svg>