<svg fill="none" height="29" width="139" class="d-inline-block align-top" xmlns="http://www.w3.org/2000/svg" viewBox="0 0 167 30" aria-hidden="true">
          <path fill="#5ea1ee" fill-rule="evenodd" clip-rule="evenodd" d="M78.2 18.7v2.7h-2.4v-15h2.4v9.4l3.9-4.8h2.7l-3.6 4.2 4 6.2h-2.7l-2.7-4.5-1.6 1.8zm-17.7 3a5 5 0 001.8-.4c.6-.3 1.2-.6 1.6-1a6.1 6.1 0 001.5-4c0-1-.1-1.7-.4-2.4-.3-.7-.6-1.3-1-1.7-.5-.5-1-.9-1.7-1.1a4.9 4.9 0 00-6.4 2.8c-.3.7-.4 1.4-.4 2.3 0 .9.1 1.6.4 2.3a5 5 0 001.1 1.7 4.6 4.6 0 003.5 1.5zm-15.7-.3l1.2-4.8a55.5 55.5 0 00.6-3.1h.1a870.7 870.7 0 01.7 3l1.2 4.9h2.9L54 11h-2.3l-1.2 5.4a55 55 0 00-.6 3 265.5 265.5 0 00-.7-3L47.9 11h-2.3l-1.3 5.4a37.5 37.5 0 00-.7 3 42.2 42.2 0 01-.6-3L41.7 11h-2.4L42 21.4h2.8zm13.9-2.7c.4.6 1 1 1.8 1a2 2 0 001.8-1c.4-.6.6-1.5.6-2.5s-.2-2-.6-2.5a2 2 0 00-1.8-1 2 2 0 00-1.8 1c-.5.6-.7 1.4-.7 2.5 0 1 .2 1.9.7 2.5zm11.6 2.7V15c.3-.8.7-1.3 1.2-1.6a2.3 2.3 0 011.8-.5l.5.1.5-2c-.3-.2-.7-.3-1.2-.3-.6 0-1.1.2-1.6.6-.6.3-1 .8-1.4 1.5l-.2-1.8h-2v10.4h2.4zm19.4.3c.7 0 1.3-.1 1.8-.3.5-.2 1-.4 1.3-.7a3 3 0 001-2.3c0-.5 0-.9-.3-1.2-.1-.4-.4-.7-.7-.9l-1-.6A13.4 13.4 0 0090 15l-.7-.4c-.2 0-.4-.2-.5-.4a.8.8 0 01-.2-.5c0-.3.2-.6.4-.8.3-.2.6-.3 1.2-.3.4 0 .8 0 1.1.2l1.2.7 1-1.5c-.3-.4-.8-.7-1.4-1-.6-.2-1.3-.3-2-.3-1.2 0-2 .3-2.8.9-.6.6-1 1.3-1 2.2 0 .5.1.9.3 1.2l.7.8a12.8 12.8 0 002.8 1.4l.7.4c.2 0 .4.2.5.4l.2.5c0 .4-.2.7-.4 1-.3.2-.7.3-1.3.3l-1.5-.3-1.4-.9-1.1 1.6a6.9 6.9 0 004 1.5zm8.7-7.6v7.3H96v-15h2.4v5.9l1.4-1.1c.5-.3 1.1-.5 1.9-.5 1 0 1.9.4 2.4 1 .5.8.8 1.8.8 3.2v6.5h-2.5v-6.2c0-.9-.1-1.5-.4-1.9-.2-.3-.6-.5-1.2-.5-.5 0-.9.1-1.2.3l-1.2 1zm13.7 7.6a5 5 0 001.9-.4l1.5-1c.5-.5.9-1.1 1.1-1.8a6.1 6.1 0 000-4.6c-.2-.7-.6-1.3-1-1.7a4.9 4.9 0 00-8 1.7 6.3 6.3 0 000 4.6 5 5 0 001 1.7 4.6 4.6 0 003.5 1.5zm-1.8-3c.4.6 1 1 1.8 1a2 2 0 001.8-1c.4-.6.6-1.5.6-2.5s-.2-2-.6-2.5a2 2 0 00-1.8-1 2 2 0 00-1.8 1c-.4.6-.7 1.4-.7 2.5 0 1 .3 1.9.7 2.5zm11.6 6.8v-5c.4.4.8.7 1.3.9.4.2.9.3 1.3.3a4.3 4.3 0 003.1-1.5c.4-.5.8-1 1-1.8a8 8 0 00.1-4.6 5 5 0 00-.8-1.6 3.6 3.6 0 00-3-1.5c-.6 0-1.2.1-1.7.4l-1.5 1-.2-1.1h-2v14.5h2.4zm1.1-6l1 .1c.7 0 1.3-.3 1.8-.9.4-.6.7-1.5.7-2.7 0-1-.2-1.8-.6-2.4-.3-.6-1-.9-1.7-.9s-1.5.4-2.3 1.2v4.9l1.1.6zm11.3 2.2c.7 0 1.3-.1 1.8-.3.5-.2 1-.4 1.3-.7a3 3 0 001-2.3c0-.5 0-.9-.3-1.2-.1-.4-.4-.7-.7-.9l-1-.6a13.4 13.4 0 00-1.8-.7l-.7-.4c-.2 0-.4-.2-.5-.4a.8.8 0 01-.2-.5c0-.3.2-.6.4-.8.3-.2.6-.3 1.2-.3.4 0 .8 0 1.1.2l1.2.7 1-1.5c-.3-.4-.8-.7-1.4-1-.6-.2-1.3-.3-2-.3-1.1 0-2 .3-2.8.9-.6.6-1 1.3-1 2.2 0 .5.1.9.3 1.2l.7.8a12.9 12.9 0 002.8 1.4l.7.4c.2 0 .4.2.5.4l.2.5c0 .4-.1.7-.4 1-.3.2-.7.3-1.3.3l-1.5-.3-1.4-.9-1.1 1.6a6.9 6.9 0 004 1.5zm8.8-.5a1.5 1.5 0 01-2.3 0c-.3-.3-.4-.7-.4-1.2s.1-.9.4-1.2c.3-.3.7-.5 1.2-.5.4 0 .8.2 1 .5.4.3.5.7.5 1.2s-.1.9-.4 1.2zm7 .5c.5 0 1-.2 1.6-.5.5-.2 1-.5 1.3-1h.1l.2 1.2h2v-15h-2.5v3.8l.1 1.7a6 6 0 00-1.2-.9 3.8 3.8 0 00-3.2 0c-.5.3-1 .7-1.4 1.2-.4.4-.7 1-1 1.7-.2.7-.3 1.4-.3 2.3 0 1.7.4 3 1.1 4 .8 1 1.9 1.5 3.2 1.5zm-1.2-3c.4.6 1 1 1.8 1 .7 0 1.5-.5 2.2-1.2v-4.9l-1.1-.7a3 3 0 00-1-.2c-.8 0-1.3.3-1.8 1a4 4 0 00-.7 2.5c0 1.1.2 2 .6 2.6zm14 3c.6 0 1.2-.2 1.9-.4.6-.2 1.1-.4 1.6-.8l-.8-1.5-1.2.6-1.2.2a3 3 0 01-2.1-.8c-.6-.5-.9-1.2-1-2.1h6.6v-.6a7 7 0 00-.2-2.6c-.1-.6-.4-1.2-.8-1.6-.3-.4-.8-.8-1.3-1a4.5 4.5 0 00-3.7 0c-.6.2-1 .6-1.5 1-.5.5-.8 1.1-1 1.8-.4.7-.5 1.4-.5 2.3 0 .9.1 1.6.4 2.3a4.9 4.9 0 002.7 2.8c.7.2 1.3.4 2 .4zm-2.8-6.5h4.6c0-.8-.2-1.4-.5-2-.4-.4-1-.6-1.6-.6-.7 0-1.2.2-1.7.7-.4.4-.7 1-.8 1.9zM0 13.9v9.8C0 27.2 2.8 30 6.3 30h17.4c3.4 0 6.3-2.8 6.3-6.3V18l-.2.3a11 11 0 01-4 4c-2.5 1.2-4.8.7-6.5-1.2a13 13 0 01-2.4-4.7v-.3l-.6-1.5v.2l-.5 1-.7 1.6-.1.4c-.9 2-1.5 3.2-2.2 4.3-.6.8-1.2 1.5-2 2-.9.6-2 1-3 .8a5 5 0 01-3-1.8 14 14 0 01-2-2.7c-1-1.8-2-4-2.8-6.6zm30-6V6.2C30 2.8 27 0 23.7 0H6.3C4.6 0 3.1.7 2 1.8 2.5 4.7 3.3 8 4.3 11v.2c1 2.8 1.9 5.1 2.8 6.8v.1L8.3 20l.4-.4 1.8-3.6.3-.8.1-.2.3-.8.2-.3.5-1.2v-.1l1.3-2.4c.8-1 1.6-1.7 2.8-2 .8-.1 1.7 0 2.4.5.5.4 1 .8 1.3 1.3.4.7.7 1.5 1 2.6l.1.2.4 1 .3 1.1v.1c.6 1.6 1 2.6 1.5 3 0 .2.1.2.2.3.2 0 .3 0 .5-.2l.2-.1.5-.5 1.4-1.8v-.1A50.3 50.3 0 0030 7.8z"></path>
        </svg>