<?xml version="1.0" encoding="UTF-8" standalone="no"?>
<!DOCTYPE svg PUBLIC "-//W3C//DTD SVG 1.1//EN" "http://www.w3.org/Graphics/SVG/1.1/DTD/svg11.dtd">
<svg width="100%" height="100%" viewBox="0 0 999 249" version="1.1" xmlns="http://www.w3.org/2000/svg" xmlns:xlink="http://www.w3.org/1999/xlink" xml:space="preserve" xmlns:serif="http://www.serif.com/" style="fill-rule:evenodd;clip-rule:evenodd;stroke-linejoin:round;stroke-miterlimit:2;">
    <path d="M544.177,93.817L544.177,65.96L552.952,65.96C555.039,65.96 556.871,66.216 558.489,66.77C560.108,67.323 561.386,68.218 562.323,69.453C563.26,70.688 563.729,72.392 563.729,74.564C563.729,76.609 563.26,78.313 562.323,79.633C561.386,80.954 560.151,81.976 558.532,82.615C556.913,83.254 555.124,83.595 553.122,83.595L549.118,83.595L549.118,93.817L544.177,93.817ZM549.118,79.633L552.739,79.633C554.826,79.633 556.36,79.207 557.339,78.355C558.362,77.503 558.873,76.226 558.873,74.564C558.873,72.818 558.319,71.583 557.254,70.944C556.189,70.262 554.613,69.922 552.569,69.922L549.118,69.922L549.118,79.633ZM574.275,94.329C572.571,94.329 570.91,93.903 569.419,93.051C567.886,92.156 566.693,90.921 565.756,89.302C564.819,87.641 564.35,85.682 564.35,83.382C564.35,81.039 564.819,79.079 565.756,77.418C566.693,75.8 567.886,74.522 569.419,73.67C570.91,72.818 572.571,72.392 574.275,72.392C576.021,72.392 577.64,72.818 579.173,73.67C580.664,74.522 581.9,75.8 582.837,77.418C583.774,79.079 584.242,81.039 584.242,83.382C584.242,85.682 583.774,87.641 582.837,89.302C581.9,90.921 580.664,92.156 579.173,93.051C577.64,93.903 576.021,94.329 574.275,94.329ZM574.275,90.325C575.297,90.325 576.192,90.026 576.916,89.473C577.683,88.876 578.236,88.067 578.62,87.045C579.003,85.98 579.216,84.787 579.216,83.382C579.216,81.976 579.003,80.741 578.62,79.718C578.236,78.654 577.683,77.844 576.916,77.248C576.192,76.694 575.297,76.396 574.275,76.396C573.253,76.396 572.401,76.694 571.677,77.248C570.91,77.844 570.356,78.654 569.973,79.718C569.59,80.741 569.377,81.976 569.377,83.382C569.377,84.787 569.59,85.98 569.973,87.045C570.356,88.067 570.91,88.876 571.677,89.473C572.401,90.026 573.253,90.325 574.275,90.325ZM590.837,93.817L585.299,72.903L590.326,72.903L592.796,83.765C593.009,84.702 593.222,85.639 593.392,86.619C593.563,87.599 593.733,88.749 593.861,89.984L594.031,89.984C594.244,88.749 594.415,87.599 594.585,86.619C594.798,85.639 594.968,84.702 595.181,83.765L597.737,72.903L602.848,72.903L605.489,83.765C605.702,84.702 605.915,85.639 606.128,86.619C606.341,87.599 606.512,88.749 606.725,89.984L606.895,89.984C607.108,88.749 607.278,87.599 607.406,86.619C607.577,85.639 607.747,84.702 607.96,83.765L610.43,72.903L615.116,72.903L609.791,93.817L603.53,93.817L601.4,84.106C601.187,83.169 601.017,82.232 600.804,81.294C600.634,80.315 600.463,79.165 600.293,77.802L600.122,77.802C599.952,79.165 599.782,80.315 599.611,81.294C599.441,82.232 599.228,83.169 599.015,84.106L596.885,93.817L590.837,93.817ZM621.089,84.872C621.218,85.838 621.474,86.658 621.846,87.343C622.399,88.408 623.166,89.175 624.103,89.643C625.04,90.154 626.062,90.41 627.127,90.41C628.022,90.41 628.916,90.282 629.726,90.026C630.535,89.771 631.259,89.43 631.983,88.962L633.687,92.114C632.707,92.795 631.642,93.349 630.407,93.732C629.172,94.116 627.851,94.329 626.531,94.329C624.572,94.329 622.783,93.903 621.207,93.008C619.631,92.156 618.395,90.921 617.501,89.302C616.606,87.641 616.138,85.682 616.138,83.339C616.138,81.081 616.606,79.122 617.543,77.503C618.481,75.842 619.673,74.607 621.164,73.713C622.655,72.818 624.188,72.392 625.849,72.392C627.766,72.392 629.342,72.818 630.62,73.67C631.898,74.522 632.835,75.672 633.517,77.163C634.156,78.654 634.454,80.4 634.454,82.317C634.454,82.785 634.411,83.211 634.369,83.637C634.326,84.063 634.283,84.489 634.198,84.872L621.089,84.872ZM621.148,81.124L630.109,81.124C630.109,79.633 629.768,78.441 629.087,77.546C628.405,76.694 627.34,76.268 625.935,76.268C625.125,76.268 624.359,76.481 623.635,76.907C622.868,77.333 622.229,78.057 621.76,79.079C621.479,79.642 621.275,80.322 621.148,81.124ZM637.435,93.817L637.435,72.903L641.482,72.903L641.823,76.609L641.993,76.609C642.717,75.246 643.612,74.224 644.634,73.457C645.699,72.733 646.764,72.392 647.914,72.392C648.468,72.392 648.894,72.435 649.277,72.477C649.66,72.562 650.001,72.648 650.299,72.818L649.319,76.992C648.979,76.907 648.681,76.822 648.382,76.779C648.127,76.737 647.743,76.737 647.275,76.737C646.466,76.737 645.571,77.035 644.677,77.674C643.74,78.313 642.973,79.463 642.334,81.039L642.334,93.817L637.435,93.817ZM654.748,84.872C654.877,85.838 655.133,86.658 655.505,87.343C656.058,88.408 656.825,89.175 657.762,89.643C658.699,90.154 659.721,90.41 660.786,90.41C661.681,90.41 662.575,90.282 663.385,90.026C664.194,89.771 664.918,89.43 665.642,88.962L667.346,92.114C666.366,92.795 665.301,93.349 664.066,93.732C662.831,94.116 661.51,94.329 660.19,94.329C658.231,94.329 656.442,93.903 654.866,93.008C653.29,92.156 652.054,90.921 651.16,89.302C650.265,87.641 649.797,85.682 649.797,83.339C649.797,81.081 650.265,79.122 651.202,77.503C652.14,75.842 653.332,74.607 654.823,73.713C656.314,72.818 657.847,72.392 659.508,72.392C661.425,72.392 663.001,72.818 664.279,73.67C665.557,74.522 666.494,75.672 667.176,77.163C667.815,78.654 668.113,80.4 668.113,82.317C668.113,82.785 668.07,83.211 668.028,83.637C667.985,84.063 667.942,84.489 667.857,84.872L654.748,84.872ZM654.807,81.124L663.768,81.124C663.768,79.633 663.427,78.441 662.746,77.546C662.064,76.694 660.999,76.268 659.594,76.268C658.784,76.268 658.018,76.481 657.294,76.907C656.527,77.333 655.888,78.057 655.419,79.079C655.138,79.642 654.934,80.322 654.807,81.124ZM678.42,94.329C675.821,94.329 673.734,93.349 672.158,91.432C670.625,89.473 669.816,86.789 669.816,83.382C669.816,81.081 670.242,79.165 671.093,77.503C671.903,75.885 673.01,74.607 674.373,73.713C675.736,72.818 677.142,72.392 678.675,72.392C679.868,72.392 680.89,72.605 681.742,72.988C682.552,73.414 683.361,73.968 684.17,74.692L684,71.327L684,63.745L688.898,63.745L688.898,93.817L684.852,93.817L684.511,91.56L684.341,91.56C683.574,92.327 682.679,92.965 681.657,93.519C680.635,94.073 679.527,94.329 678.42,94.329ZM679.612,90.282C680.422,90.282 681.188,90.069 681.913,89.728C682.594,89.345 683.318,88.749 684,87.939L684,78.185C683.276,77.546 682.552,77.078 681.87,76.822C681.146,76.566 680.464,76.439 679.74,76.439C678.846,76.439 678.036,76.694 677.312,77.248C676.546,77.759 675.992,78.568 675.523,79.591C675.097,80.613 674.884,81.848 674.884,83.339C674.884,85.597 675.268,87.3 676.12,88.493C676.972,89.686 678.122,90.282 679.612,90.282ZM710.366,94.329C709.429,94.329 708.449,94.073 707.47,93.604C706.49,93.178 705.553,92.497 704.658,91.602L704.531,91.602L704.105,93.817L700.228,93.817L700.228,63.745L705.127,63.745L705.127,71.498L704.999,74.99C705.894,74.224 706.831,73.585 707.896,73.116C708.918,72.605 709.983,72.392 711.048,72.392C712.794,72.392 714.285,72.818 715.52,73.713C716.755,74.564 717.692,75.8 718.331,77.376C718.97,78.994 719.311,80.868 719.311,82.998C719.311,85.384 718.885,87.428 718.033,89.132C717.181,90.836 716.074,92.114 714.753,93.008C713.39,93.903 711.942,94.329 710.366,94.329ZM709.344,90.282C710.281,90.282 711.09,89.984 711.857,89.473C712.581,88.919 713.177,88.11 713.603,87.045C714.029,85.98 714.242,84.659 714.242,83.083C714.242,81.678 714.114,80.485 713.774,79.505C713.476,78.526 712.964,77.759 712.325,77.248C711.644,76.694 710.792,76.439 709.727,76.439C708.96,76.439 708.236,76.609 707.47,76.992C706.703,77.376 705.936,77.972 705.127,78.781L705.127,88.536C705.894,89.175 706.618,89.6 707.342,89.856C708.066,90.154 708.747,90.282 709.344,90.282ZM723.92,102.422C723.324,102.422 722.855,102.379 722.429,102.294C721.961,102.209 721.577,102.081 721.194,101.91L722.131,98.247C722.429,98.332 722.685,98.375 722.898,98.418C723.153,98.46 723.366,98.46 723.579,98.46C724.687,98.46 725.581,98.12 726.263,97.438C726.902,96.756 727.413,95.905 727.754,94.882L728.137,93.562L719.916,72.903L724.9,72.903L728.52,83.169C728.819,84.063 729.159,85.043 729.457,86.022C729.756,87.045 730.054,88.067 730.352,89.047L730.522,89.047C730.778,88.067 731.076,87.087 731.332,86.108C731.587,85.085 731.843,84.106 732.098,83.169L735.25,72.903L739.978,72.903L732.397,94.754C731.843,96.331 731.161,97.694 730.437,98.844C729.713,99.994 728.819,100.846 727.754,101.485C726.731,102.081 725.411,102.422 723.92,102.422Z" style="fill:white;fill-opacity:0.85;"/>
    <path d="M552.097,168.539L541.409,128.17L551.111,128.17L555.879,149.135C556.318,150.944 556.702,152.794 557.03,154.685C557.359,156.576 557.661,158.727 557.935,161.139L558.264,161.139C558.647,158.727 559.017,156.576 559.374,154.685C559.73,152.794 560.1,150.944 560.484,149.135L565.417,128.17L575.283,128.17L580.38,149.135C580.819,150.944 581.23,152.794 581.614,154.685C581.997,156.576 582.381,158.727 582.765,161.139L583.094,161.139C583.477,158.727 583.82,156.576 584.121,154.685C584.423,152.794 584.765,150.944 585.149,149.135L589.918,128.17L598.962,128.17L588.684,168.539L576.598,168.539L572.487,149.793C572.104,147.984 571.734,146.162 571.377,144.326C571.021,142.489 570.679,140.256 570.35,137.625L570.021,137.625C569.692,140.256 569.363,142.489 569.034,144.326C568.705,146.162 568.322,147.984 567.883,149.793L563.772,168.539L552.097,168.539ZM620.207,169.525C616.853,169.525 613.714,168.692 610.793,167.026C607.871,165.36 605.508,162.951 603.705,159.799C601.902,156.648 601,152.841 601,148.379C601,143.895 601.902,140.072 603.705,136.909C605.508,133.746 607.871,131.332 610.793,129.666C613.714,128 616.853,127.166 620.207,127.166C623.561,127.166 626.693,128 629.604,129.666C632.514,131.332 634.877,133.746 636.691,136.909C638.506,140.072 639.413,143.895 639.413,148.379C639.413,152.841 638.506,156.648 636.691,159.799C634.877,162.951 632.514,165.36 629.604,167.026C626.693,168.692 623.561,169.525 620.207,169.525ZM620.207,161.797C622.18,161.797 623.88,161.243 625.305,160.136C626.73,159.03 627.815,157.467 628.561,155.45C629.306,153.433 629.679,151.076 629.679,148.379C629.679,145.682 629.306,143.319 628.561,141.291C627.815,139.263 626.73,137.69 625.305,136.572C623.88,135.454 622.18,134.895 620.207,134.895C618.234,134.895 616.54,135.454 615.126,136.572C613.711,137.69 612.626,139.263 611.87,141.291C611.114,143.319 610.735,145.682 610.735,148.379C610.735,151.076 611.114,153.433 611.87,155.45C612.626,157.467 613.711,159.03 615.126,160.136C616.54,161.243 618.234,161.797 620.207,161.797ZM645.497,168.539L645.497,128.153L653.258,128.153L653.981,135.356L654.244,135.356C655.67,132.714 657.388,130.689 659.4,129.28C661.412,127.871 663.519,127.166 665.723,127.166C666.742,127.166 667.611,127.23 668.329,127.356C669.047,127.482 669.702,127.693 670.294,127.989L668.386,136.046C667.762,135.882 667.175,135.758 666.627,135.676C666.079,135.594 665.372,135.553 664.505,135.553C662.894,135.553 661.209,136.169 659.449,137.403C657.69,138.636 656.196,140.804 654.968,143.907L654.968,168.539L645.497,168.539ZM672.892,168.539L672.892,110.459L682.265,110.459L682.265,146.637L682.527,146.637L697.294,128.153L707.752,128.153L694.005,144.696L709.166,168.539L698.873,168.539L688.48,151.01L682.265,158.179L682.265,168.539L672.892,168.539ZM723.768,169.525C720.94,169.525 718.169,169.007 715.455,167.972C712.742,166.936 710.416,165.48 708.476,163.606L712.619,158.213C714.428,159.649 716.264,160.704 718.128,161.378C719.991,162.052 721.959,162.389 724.031,162.389C726.234,162.389 727.865,161.926 728.923,161C729.981,160.074 730.51,158.925 730.51,157.555C730.51,156.425 730.11,155.482 729.31,154.726C728.51,153.97 727.471,153.315 726.193,152.761C724.916,152.208 723.527,151.657 722.025,151.109C720.063,150.396 718.221,149.527 716.5,148.502C714.778,147.477 713.383,146.213 712.315,144.712C711.246,143.21 710.711,141.385 710.711,139.236C710.711,135.706 712.038,132.813 714.691,130.554C717.344,128.296 720.918,127.166 725.413,127.166C728.142,127.166 730.653,127.619 732.944,128.523C735.234,129.427 737.197,130.587 738.83,132.001L734.687,137.395C733.239,136.364 731.776,135.591 730.296,135.075C728.816,134.56 727.265,134.303 725.643,134.303C723.604,134.303 722.096,134.741 721.12,135.618C720.144,136.495 719.656,137.548 719.656,138.776C719.656,139.774 719.971,140.607 720.602,141.275C721.232,141.944 722.148,142.538 723.348,143.059C724.549,143.58 725.994,144.125 727.682,144.696C729.764,145.419 731.705,146.288 733.502,147.302C735.3,148.316 736.742,149.599 737.827,151.15C738.913,152.701 739.455,154.649 739.455,156.995C739.455,159.308 738.855,161.41 737.655,163.301C736.455,165.192 734.69,166.702 732.36,167.832C730.031,168.961 727.167,169.525 723.768,169.525ZM744.651,168.539L744.651,110.459L754.122,110.459L754.122,125.49L753.728,133.284C755.438,131.672 757.332,130.25 759.409,129.016C761.486,127.783 763.901,127.166 766.653,127.166C771.005,127.166 774.165,128.567 776.133,131.368C778.1,134.169 779.084,138.118 779.084,143.216L779.084,168.539L769.612,168.539L769.612,144.432C769.612,141.1 769.119,138.743 768.132,137.361C767.146,135.98 765.546,135.289 763.332,135.289C761.555,135.289 759.999,135.717 758.661,136.572C757.324,137.427 755.811,138.677 754.122,140.321L754.122,168.539L744.651,168.539ZM803.783,169.525C800.428,169.525 797.29,168.692 794.368,167.026C791.446,165.36 789.084,162.951 787.281,159.799C785.478,156.648 784.576,152.841 784.576,148.379C784.576,143.895 785.478,140.072 787.281,136.909C789.084,133.746 791.446,131.332 794.368,129.666C797.29,128 800.428,127.166 803.783,127.166C807.137,127.166 810.269,128 813.179,129.666C816.09,131.332 818.452,133.746 820.267,136.909C822.081,140.072 822.988,143.895 822.988,148.379C822.988,152.841 822.081,156.648 820.267,159.799C818.452,162.951 816.09,165.36 813.179,167.026C810.269,168.692 807.137,169.525 803.783,169.525ZM803.783,161.797C805.756,161.797 807.455,161.243 808.88,160.136C810.305,159.03 811.391,157.467 812.136,155.45C812.882,153.433 813.255,151.076 813.255,148.379C813.255,145.682 812.882,143.319 812.136,141.291C811.391,139.263 810.305,137.69 808.88,136.572C807.455,135.454 805.756,134.895 803.783,134.895C801.81,134.895 800.116,135.454 798.701,136.572C797.287,137.69 796.202,139.263 795.445,141.291C794.689,143.319 794.311,145.682 794.311,148.379C794.311,151.076 794.689,153.433 795.445,155.45C796.202,157.467 797.287,159.03 798.701,160.136C800.116,161.243 801.81,161.797 803.783,161.797ZM829.073,184.522L829.073,128.153L836.833,128.153L837.557,132.462L837.82,132.462C839.53,130.971 841.435,129.715 843.535,128.696C845.634,127.676 847.785,127.166 849.988,127.166C853.354,127.166 856.218,128.013 858.581,129.707C860.943,131.4 862.749,133.788 863.999,136.868C865.248,139.949 865.873,143.566 865.873,147.721C865.873,152.325 865.056,156.253 863.423,159.503C861.79,162.754 859.666,165.237 857.051,166.952C854.437,168.668 851.633,169.525 848.641,169.525C846.875,169.525 845.113,169.136 843.354,168.358C841.594,167.579 839.892,166.488 838.248,165.086L838.543,171.794L838.543,184.522L829.073,184.522ZM846.634,161.698C848.432,161.698 850.049,161.177 851.485,160.136C852.921,159.094 854.056,157.543 854.889,155.482C855.722,153.421 856.139,150.867 856.139,147.82C856.139,145.134 855.832,142.835 855.218,140.922C854.604,139.009 853.653,137.543 852.365,136.523C851.077,135.504 849.408,134.994 847.357,134.994C845.922,134.994 844.491,135.361 843.066,136.095C841.64,136.83 840.133,137.976 838.543,139.533L838.543,158.344C840.002,159.561 841.43,160.424 842.828,160.934C844.225,161.443 845.494,161.698 846.634,161.698ZM883.435,169.525C880.607,169.525 877.836,169.007 875.122,167.972C872.409,166.936 870.083,165.48 868.143,163.606L872.286,158.213C874.095,159.649 875.931,160.704 877.794,161.378C879.658,162.052 881.626,162.389 883.697,162.389C885.901,162.389 887.532,161.926 888.59,161C889.648,160.074 890.177,158.925 890.177,157.555C890.177,156.425 889.777,155.482 888.977,154.726C888.176,153.97 887.138,153.315 885.86,152.761C884.583,152.208 883.193,151.657 881.692,151.109C879.73,150.396 877.888,149.527 876.167,148.502C874.445,147.477 873.05,146.213 871.981,144.712C870.913,143.21 870.378,141.385 870.378,139.236C870.378,135.706 871.705,132.813 874.358,130.554C877.011,128.296 880.585,127.166 885.08,127.166C887.809,127.166 890.319,127.619 892.61,128.523C894.901,129.427 896.863,130.587 898.497,132.001L894.354,137.395C892.906,136.364 891.443,135.591 889.963,135.075C888.483,134.56 886.932,134.303 885.31,134.303C883.271,134.303 881.763,134.741 880.787,135.618C879.811,136.495 879.323,137.548 879.323,138.776C879.323,139.774 879.638,140.607 880.269,141.275C880.899,141.944 881.815,142.538 883.015,143.059C884.216,143.58 885.66,144.125 887.348,144.696C889.431,145.419 891.372,146.288 893.169,147.302C894.967,148.316 896.409,149.599 897.494,151.15C898.58,152.701 899.122,154.649 899.122,156.995C899.122,159.308 898.522,161.41 897.322,163.301C896.122,165.192 894.357,166.702 892.027,167.832C889.698,168.961 886.834,169.525 883.435,169.525ZM909.612,169.525C907.913,169.525 906.469,168.914 905.28,167.692C904.091,166.47 903.496,164.955 903.496,163.146C903.496,161.26 904.091,159.714 905.28,158.508C906.469,157.302 907.913,156.699 909.612,156.699C911.366,156.699 912.825,157.302 913.987,158.508C915.149,159.714 915.73,161.26 915.73,163.146C915.73,164.955 915.149,166.47 913.987,167.692C912.825,168.914 911.366,169.525 909.612,169.525ZM936.777,169.525C931.746,169.525 927.725,167.659 924.716,163.926C921.707,160.193 920.203,155.011 920.203,148.379C920.203,143.994 921.011,140.22 922.628,137.058C924.245,133.895 926.358,131.456 928.967,129.74C931.576,128.024 934.355,127.166 937.304,127.166C939.617,127.166 941.577,127.558 943.183,128.343C944.788,129.127 946.359,130.214 947.893,131.606L947.532,125.094L947.532,110.459L957.003,110.459L957.003,168.539L949.242,168.539L948.518,164.165L948.256,164.165C946.776,165.644 945.038,166.908 943.043,167.955C941.047,169.002 938.959,169.525 936.777,169.525ZM939.113,161.698C940.691,161.698 942.163,161.334 943.528,160.605C944.892,159.876 946.227,158.727 947.532,157.159L947.532,138.348C946.161,137.099 944.796,136.227 943.437,135.734C942.078,135.24 940.702,134.994 939.309,134.994C937.6,134.994 936.038,135.512 934.624,136.548C933.209,137.583 932.074,139.096 931.219,141.086C930.364,143.076 929.937,145.474 929.937,148.28C929.937,152.654 930.742,155.984 932.354,158.27C933.965,160.555 936.218,161.698 939.113,161.698ZM972.574,151.273C972.816,153.14 973.305,154.744 974.039,156.083C975.135,158.083 976.587,159.563 978.396,160.523C980.205,161.482 982.151,161.961 984.234,161.961C985.988,161.961 987.646,161.715 989.208,161.221C990.77,160.728 992.236,160.043 993.607,159.166L996.895,165.25C995.032,166.566 992.908,167.607 990.523,168.374C988.139,169.142 985.659,169.525 983.083,169.525C979.301,169.525 975.889,168.69 972.847,167.018C969.804,165.346 967.406,162.934 965.652,159.783C963.898,156.631 963.021,152.808 963.021,148.313C963.021,143.928 963.926,140.16 965.735,137.008C967.543,133.856 969.873,131.431 972.723,129.732C975.573,128.033 978.588,127.183 981.767,127.183C985.44,127.183 988.509,128.005 990.976,129.65C993.442,131.294 995.292,133.555 996.525,136.433C997.759,139.31 998.375,142.613 998.375,146.34C998.375,147.217 998.334,148.067 998.252,148.889C998.17,149.711 998.046,150.506 997.882,151.273L972.574,151.273ZM972.686,144.038L989.989,144.038C989.989,141.133 989.331,138.844 988.016,137.173C986.7,135.501 984.672,134.665 981.932,134.665C980.397,134.665 978.903,135.076 977.451,135.898C975.998,136.72 974.792,138.118 973.833,140.091C973.306,141.175 972.924,142.491 972.686,144.038Z" style="fill:white;"/>
    <path d="M373.802,58.74C379.412,53.365 387.028,50.062 395.417,50.062L481.089,50.062C498.335,50.062 512.316,64.024 512.316,81.247L512.316,88.692C510.811,92.006 509.248,95.323 507.641,98.602C502.307,109.489 496.717,119.488 491.559,127.102C488.975,130.915 486.638,133.923 484.631,136.086C483.636,137.159 482.812,137.925 482.171,138.444C481.583,138.921 481.29,139.072 481.29,139.073C479.777,139.768 479.035,139.801 478.857,139.794C478.756,139.746 478.515,139.599 478.117,139.209C476.165,137.296 473.957,133.103 471.498,126.132C470.542,123.421 469.668,120.669 468.76,117.808C468.574,117.222 468.387,116.632 468.197,116.036C467.128,112.684 465.955,109.082 464.654,105.884C463.435,102.89 461.658,99.083 458.945,96.018C455.929,92.611 450.467,88.877 443.137,90.288C437.416,91.389 433.548,95.103 431.286,97.808C428.871,100.695 426.877,104.142 425.22,107.395C422.753,112.241 420.28,118.229 417.966,123.832C417.229,125.616 416.508,127.361 415.809,129.018C412.662,136.475 409.804,142.534 406.937,146.518C406.3,147.403 405.774,148.037 405.357,148.488C405.317,148.445 405.275,148.401 405.232,148.355C403.594,146.591 401.539,143.674 399.209,139.444C394.581,131.04 389.827,119.229 385.527,105.875C380.499,90.261 376.377,73.447 373.802,58.74ZM512.316,139.657L512.316,167.004C512.316,184.226 498.335,198.188 481.089,198.188L395.417,198.188C378.171,198.188 364.19,184.226 364.19,167.004L364.19,118.547C368.322,130.693 373.005,142.098 377.969,151.111C380.79,156.234 383.947,161.037 387.459,164.818C390.741,168.352 395.708,172.489 402.316,173.367C414.298,174.959 422.311,166.637 426.622,160.646C431.275,154.18 435.048,145.763 438.148,138.421C439.051,136.28 439.9,134.226 440.712,132.262C442.173,128.725 443.513,125.482 444.833,122.555C444.92,122.826 445.008,123.101 445.097,123.38C445.267,123.912 445.44,124.459 445.618,125.019C446.526,127.882 447.537,131.067 448.633,134.176C451.101,141.17 454.792,150.268 461.136,156.487C464.571,159.854 469.108,162.711 474.833,163.669C480.529,164.622 486.16,163.488 491.449,161.054C495.753,159.074 499.447,155.737 502.414,152.539C505.536,149.174 508.638,145.093 511.636,140.669C511.862,140.335 512.089,139.997 512.316,139.657ZM404.146,149.528C404.146,149.521 404.197,149.487 404.299,149.451C404.196,149.518 404.146,149.536 404.146,149.528ZM478.865,139.798C478.896,139.805 478.912,139.812 478.911,139.814C478.911,139.816 478.896,139.812 478.865,139.798ZM478.839,139.793C478.804,139.791 478.805,139.787 478.839,139.793ZM450.247,112.947C450.247,112.949 450.217,112.981 450.155,113.032C450.216,112.969 450.247,112.944 450.247,112.947Z" style="fill:rgb(95,161,238);"/>
    <path d="M89.356,0.1L145.399,0.062L234.698,41.36L234.698,41.442L225.499,186.639L117.419,248.25L9.338,186.639L0.134,41.362L89.356,0.1Z" style="fill:url(#_Linear1);"/>
    <path d="M145.264,0L89.573,0L0.134,41.362L9.338,186.639L117.419,248.25L225.499,186.639L234.703,41.362L145.264,-0Z" style="fill:rgb(15,15,17);fill-opacity:0.3;fill-rule:nonzero;"/>
    <path d="M59.877,164.56L13.988,164.56L13.988,35.164L60.258,35.164C73.273,35.164 84.47,37.748 93.849,42.918C103.228,48.088 110.448,55.502 115.508,65.159C120.568,74.816 123.098,86.367 123.098,99.81C123.098,113.264 120.565,124.832 115.499,134.512C110.433,144.193 103.182,151.62 93.745,156.796C84.309,161.972 73.02,164.56 59.877,164.56ZM41.292,58.645L41.292,141.078L58.626,141.078C66.766,141.078 73.606,139.648 79.147,136.788C84.688,133.928 88.865,129.449 91.679,123.353C94.492,117.257 95.899,109.409 95.899,99.81C95.899,90.222 94.496,82.397 91.688,76.335C88.88,70.273 84.708,65.81 79.173,62.944C73.638,60.078 66.813,58.645 58.695,58.645L41.292,58.645ZM133.485,164.56L133.485,35.164L220.71,35.164L220.71,57.707L160.788,57.707L160.788,88.138L216.124,88.138L216.124,110.265L160.788,110.265L160.788,142.016L220.849,142.016L220.849,164.56L133.485,164.56Z" style="fill-opacity:0.07;"/>
    <path d="M69.925,173.774L61.74,173.774L59.873,168.219L51.409,168.219L49.548,173.774L45.19,173.774L53.132,151.258L58.156,151.258L65.953,173.413L65.953,156.879L69.846,156.879L69.846,159.769L70.04,159.769C70.425,158.818 71.029,158.063 71.853,157.505C72.677,156.947 73.723,156.668 74.99,156.668C76.153,156.668 77.167,156.916 78.034,157.411C78.9,157.907 79.574,158.629 80.054,159.577C80.535,160.525 80.775,161.677 80.775,163.033L80.775,173.774L76.803,173.774L76.803,163.649C76.803,162.523 76.51,161.639 75.924,160.997C75.338,160.356 74.532,160.035 73.506,160.035C72.813,160.035 72.197,160.187 71.657,160.491C71.117,160.796 70.693,161.233 70.385,161.803C70.078,162.373 69.925,163.067 69.925,163.885L69.925,173.774ZM58.773,164.943L55.726,155.876L55.544,155.876L52.506,164.943L58.773,164.943ZM89.945,180.454C87.799,180.454 86.113,180.039 84.887,179.209C83.661,178.379 82.869,177.371 82.51,176.186L86.077,175.316C86.24,175.648 86.476,175.978 86.787,176.306C87.097,176.633 87.514,176.905 88.038,177.12C88.562,177.336 89.222,177.444 90.018,177.444C91.148,177.444 92.083,177.171 92.824,176.625C93.564,176.079 93.934,175.185 93.934,173.944L93.934,170.746L93.717,170.746C93.523,171.153 93.231,171.572 92.839,172.002C92.447,172.432 91.929,172.794 91.285,173.087C90.642,173.38 89.834,173.527 88.863,173.527C87.567,173.527 86.395,173.221 85.345,172.611C84.295,172 83.459,171.085 82.838,169.864C82.216,168.642 81.905,167.117 81.905,165.288C81.905,163.43 82.216,161.861 82.838,160.58C83.459,159.3 84.298,158.327 85.354,157.664C86.41,157 87.587,156.668 88.887,156.668C89.88,156.668 90.699,156.834 91.343,157.166C91.986,157.499 92.5,157.899 92.884,158.368C93.268,158.837 93.562,159.273 93.765,159.678L93.977,159.678L93.977,156.879L97.87,156.879L97.87,174.053C97.87,175.491 97.526,176.684 96.84,177.633C96.154,178.58 95.214,179.288 94.021,179.754C92.827,180.221 91.468,180.454 89.945,180.454ZM89.975,170.401C91.247,170.401 92.227,169.946 92.917,169.035C93.607,168.124 93.952,166.863 93.952,165.251C93.952,164.186 93.8,163.255 93.496,162.459C93.192,161.663 92.744,161.042 92.153,160.596C91.561,160.149 90.836,159.926 89.975,159.926C89.094,159.926 88.357,160.158 87.761,160.623C87.166,161.087 86.718,161.72 86.418,162.522C86.118,163.324 85.967,164.234 85.967,165.251C85.967,166.283 86.119,167.186 86.423,167.961C86.726,168.736 87.176,169.336 87.775,169.762C88.373,170.189 89.107,170.401 89.975,170.401ZM110.805,166.69L110.805,156.879L114.777,156.879L114.777,173.774L110.926,173.774L110.926,170.77L110.745,170.77C110.358,171.711 109.733,172.485 108.87,173.091C108.006,173.698 106.939,173.996 105.667,173.986C104.561,173.986 103.586,173.741 102.742,173.25C101.897,172.759 101.237,172.039 100.76,171.091C100.284,170.142 100.046,168.989 100.046,167.633L100.046,156.879L104.017,156.879L104.017,167.034C104.017,168.096 104.312,168.944 104.901,169.576C105.491,170.209 106.262,170.52 107.215,170.51C107.803,170.51 108.371,170.37 108.918,170.089C109.465,169.808 109.916,169.384 110.272,168.816C110.627,168.249 110.805,167.54 110.805,166.69ZM120.55,151.258L120.55,173.775L116.578,173.775L116.578,151.258L120.55,151.258ZM127.332,174.119C126.26,174.119 125.295,173.925 124.436,173.537C123.578,173.149 122.902,172.577 122.408,171.822C121.914,171.066 121.668,170.136 121.668,169.029C121.668,168.078 121.845,167.292 122.2,166.67C122.554,166.049 123.036,165.55 123.646,165.174C124.255,164.798 124.941,164.514 125.704,164.321C126.467,164.127 127.259,163.988 128.081,163.903C129.076,163.797 129.88,163.702 130.491,163.619C131.103,163.536 131.549,163.405 131.83,163.223C132.111,163.042 132.252,162.763 132.252,162.386L132.252,162.308C132.252,161.488 132.009,160.85 131.522,160.396C131.035,159.942 130.328,159.715 129.399,159.715C128.428,159.715 127.658,159.927 127.09,160.351C126.522,160.775 126.137,161.276 125.935,161.854L122.223,161.328C122.518,160.301 123.003,159.441 123.679,158.75C124.355,158.059 125.179,157.539 126.151,157.191C127.123,156.842 128.2,156.668 129.381,156.668C130.187,156.668 130.993,156.762 131.799,156.95C132.605,157.139 133.344,157.453 134.016,157.893C134.687,158.333 135.226,158.928 135.633,159.676C136.039,160.425 136.242,161.357 136.242,162.471L136.242,173.774L132.409,173.774L132.409,171.441L132.288,171.441C132.049,171.913 131.709,172.352 131.27,172.758C130.83,173.164 130.286,173.492 129.636,173.743C128.986,173.993 128.218,174.119 127.332,174.119ZM128.353,171.187C129.155,171.187 129.849,171.028 130.436,170.71C131.022,170.391 131.475,169.969 131.796,169.442C132.116,168.915 132.276,168.34 132.276,167.718L132.276,165.729C132.145,165.832 131.933,165.927 131.64,166.014C131.347,166.102 131.015,166.18 130.646,166.249C130.276,166.317 129.912,166.376 129.553,166.425C129.194,166.475 128.885,166.517 128.625,166.551C128.031,166.634 127.499,166.767 127.029,166.951C126.56,167.136 126.189,167.39 125.919,167.714C125.648,168.039 125.512,168.459 125.512,168.975C125.512,169.702 125.779,170.253 126.312,170.627C126.845,171 127.525,171.187 128.353,171.187ZM138.49,173.774L138.49,156.879L142.335,156.879L142.335,159.714L142.516,159.714C142.824,158.733 143.355,157.977 144.11,157.446C144.865,156.915 145.724,156.649 146.687,156.649C146.906,156.649 147.153,156.659 147.427,156.678C147.701,156.697 147.932,156.726 148.119,156.765L148.119,160.409C147.944,160.353 147.675,160.304 147.312,160.262C146.95,160.219 146.6,160.198 146.264,160.198C145.537,160.198 144.885,160.354 144.308,160.667C143.732,160.979 143.28,161.409 142.953,161.957C142.625,162.505 142.462,163.138 142.462,163.855L142.462,173.774L138.49,173.774ZM149.519,174.028C148.838,174.028 148.262,173.795 147.791,173.328C147.321,172.862 147.086,172.29 147.086,171.614C147.086,170.936 147.321,170.365 147.791,169.898C148.262,169.432 148.838,169.198 149.519,169.198C150.2,169.198 150.776,169.432 151.246,169.898C151.716,170.365 151.952,170.936 151.952,171.614C151.952,172.29 151.716,172.862 151.246,173.328C150.776,173.795 150.2,174.028 149.519,174.028ZM161.768,173.774L154.128,173.774L154.128,151.258L161.913,151.258C164.152,151.258 166.075,151.707 167.682,152.606C169.289,153.504 170.523,154.794 171.386,156.473C172.248,158.152 172.679,160.16 172.679,162.495C172.679,164.839 172.246,166.853 171.38,168.538C170.513,170.224 169.267,171.518 167.639,172.42C166.012,173.323 164.055,173.774 161.768,173.774ZM158.202,154.788L158.202,170.244L161.563,170.244C163.128,170.244 164.437,169.959 165.487,169.389C166.538,168.819 167.327,167.959 167.855,166.808C168.383,165.657 168.647,164.22 168.647,162.495C168.647,160.778 168.385,159.349 167.861,158.208C167.338,157.066 166.557,156.211 165.52,155.642C164.484,155.073 163.201,154.788 161.672,154.788L158.202,154.788ZM174.922,173.774L174.922,151.258L189.574,151.258L189.574,154.679L178.996,154.679L178.996,160.718L188.8,160.718L188.8,164.091L178.996,164.091L178.996,170.353L189.641,170.353L189.641,173.774L174.922,173.774Z" style="fill:rgb(250,56,231);"/>
    <path d="M85.364,144.1L117.415,66.158L149.467,144.1L85.364,144.1Z" style="fill:url(#_Linear2);"/>
    <path d="M69.925,172.478L61.74,172.478L59.873,166.923L51.409,166.923L49.548,172.478L45.19,172.478L53.132,149.962L58.156,149.962L65.953,172.117L65.953,155.583L69.846,155.583L69.846,158.472L70.04,158.472C70.425,157.521 71.029,156.767 71.853,156.209C72.677,155.651 73.723,155.372 74.99,155.372C76.153,155.372 77.167,155.619 78.034,156.115C78.9,156.611 79.574,157.332 80.054,158.281C80.535,159.228 80.775,160.381 80.775,161.737L80.775,172.478L76.803,172.478L76.803,162.353C76.803,161.227 76.51,160.343 75.924,159.701C75.338,159.059 74.532,158.739 73.506,158.739C72.813,158.739 72.197,158.891 71.657,159.195C71.117,159.499 70.693,159.936 70.385,160.506C70.078,161.077 69.925,161.771 69.925,162.589L69.925,172.478ZM58.773,163.647L55.726,154.58L55.544,154.58L52.506,163.647L58.773,163.647ZM89.945,179.157C87.799,179.157 86.113,178.742 84.887,177.912C83.661,177.082 82.869,176.075 82.51,174.89L86.077,174.02C86.24,174.352 86.476,174.682 86.787,175.009C87.097,175.337 87.514,175.608 88.038,175.824C88.562,176.04 89.222,176.147 90.018,176.147C91.148,176.147 92.083,175.874 92.824,175.328C93.564,174.782 93.934,173.888 93.934,172.647L93.934,169.45L93.717,169.45C93.523,169.857 93.231,170.275 92.839,170.706C92.447,171.136 91.929,171.497 91.285,171.791C90.642,172.084 89.834,172.23 88.863,172.23C87.567,172.23 86.395,171.925 85.345,171.314C84.295,170.704 83.459,169.788 82.838,168.567C82.216,167.346 81.905,165.821 81.905,163.991C81.905,162.134 82.216,160.564 82.838,159.284C83.459,158.003 84.298,157.031 85.354,156.367C86.41,155.703 87.587,155.372 88.887,155.372C89.88,155.372 90.699,155.538 91.343,155.87C91.986,156.203 92.5,156.603 92.884,157.072C93.268,157.54 93.562,157.977 93.765,158.382L93.977,158.382L93.977,155.583L97.87,155.583L97.87,172.756C97.87,174.195 97.526,175.388 96.84,176.336C96.154,177.284 95.214,177.991 94.021,178.458C92.827,178.924 91.468,179.157 89.945,179.157ZM89.975,169.105C91.247,169.105 92.227,168.65 92.917,167.739C93.607,166.828 93.952,165.567 93.952,163.955C93.952,162.889 93.8,161.958 93.496,161.162C93.192,160.366 92.744,159.745 92.153,159.299C91.561,158.853 90.836,158.63 89.975,158.63C89.094,158.63 88.357,158.862 87.761,159.326C87.166,159.791 86.718,160.424 86.418,161.226C86.118,162.028 85.967,162.938 85.967,163.955C85.967,164.987 86.119,165.89 86.423,166.665C86.726,167.44 87.176,168.04 87.775,168.466C88.373,168.892 89.107,169.105 89.975,169.105ZM110.805,165.394L110.805,155.583L114.777,155.583L114.777,172.478L110.926,172.478L110.926,169.474L110.745,169.474C110.358,170.415 109.733,171.189 108.87,171.795C108.006,172.402 106.939,172.7 105.667,172.69C104.561,172.69 103.586,172.444 102.742,171.954C101.897,171.463 101.237,170.743 100.76,169.794C100.284,168.845 100.046,167.692 100.046,166.337L100.046,155.583L104.017,155.583L104.017,165.738C104.017,166.8 104.312,167.647 104.901,168.28C105.491,168.912 106.262,169.224 107.215,169.214C107.803,169.214 108.371,169.073 108.918,168.792C109.465,168.511 109.916,168.087 110.272,167.52C110.627,166.953 110.805,166.244 110.805,165.394ZM120.55,149.962L120.55,172.479L116.578,172.479L116.578,149.962L120.55,149.962ZM127.332,172.823C126.26,172.823 125.295,172.629 124.436,172.241C123.578,171.853 122.902,171.281 122.408,170.526C121.914,169.77 121.668,168.839 121.668,167.733C121.668,166.782 121.845,165.996 122.2,165.374C122.554,164.753 123.036,164.254 123.646,163.878C124.255,163.502 124.941,163.217 125.704,163.024C126.467,162.831 127.259,162.692 128.081,162.607C129.076,162.5 129.88,162.406 130.491,162.323C131.103,162.24 131.549,162.108 131.83,161.927C132.111,161.746 132.252,161.467 132.252,161.09L132.252,161.011C132.252,160.191 132.009,159.554 131.522,159.1C131.035,158.645 130.328,158.418 129.399,158.418C128.428,158.418 127.658,158.63 127.09,159.054C126.522,159.478 126.137,159.98 125.935,160.558L122.223,160.032C122.518,159.004 123.003,158.145 123.679,157.454C124.355,156.763 125.179,156.243 126.151,155.894C127.123,155.546 128.2,155.372 129.381,155.372C130.187,155.372 130.993,155.466 131.799,155.654C132.605,155.842 133.344,156.157 134.016,156.597C134.687,157.037 135.226,157.632 135.633,158.38C136.039,159.129 136.242,160.06 136.242,161.174L136.242,172.478L132.409,172.478L132.409,170.145L132.288,170.145C132.049,170.616 131.709,171.055 131.27,171.461C130.83,171.867 130.286,172.196 129.636,172.446C128.986,172.697 128.218,172.823 127.332,172.823ZM128.353,169.891C129.155,169.891 129.849,169.732 130.436,169.413C131.022,169.095 131.475,168.672 131.796,168.145C132.116,167.619 132.276,167.044 132.276,166.421L132.276,164.433C132.145,164.536 131.933,164.63 131.64,164.718C131.347,164.806 131.015,164.884 130.646,164.952C130.276,165.021 129.912,165.08 129.553,165.129C129.194,165.179 128.885,165.22 128.625,165.255C128.031,165.337 127.499,165.471 127.029,165.655C126.56,165.839 126.189,166.094 125.919,166.418C125.648,166.743 125.512,167.163 125.512,167.679C125.512,168.406 125.779,168.956 126.312,169.33C126.845,169.704 127.525,169.891 128.353,169.891ZM138.49,172.478L138.49,155.583L142.335,155.583L142.335,158.418L142.516,158.418C142.824,157.437 143.355,156.68 144.11,156.15C144.865,155.619 145.724,155.353 146.687,155.353C146.906,155.353 147.153,155.363 147.427,155.382C147.701,155.401 147.932,155.43 148.119,155.468L148.119,159.113C147.944,159.057 147.675,159.008 147.312,158.965C146.95,158.923 146.6,158.902 146.264,158.902C145.537,158.902 144.885,159.058 144.308,159.37C143.732,159.683 143.28,160.112 142.953,160.661C142.625,161.209 142.462,161.842 142.462,162.559L142.462,172.478L138.49,172.478ZM149.519,172.732C148.838,172.732 148.262,172.499 147.791,172.032C147.321,171.566 147.086,170.994 147.086,170.317C147.086,169.64 147.321,169.068 147.791,168.602C148.262,168.136 148.838,167.902 149.519,167.902C150.2,167.902 150.776,168.136 151.246,168.602C151.716,169.068 151.952,169.64 151.952,170.317C151.952,170.994 151.716,171.566 151.246,172.032C150.776,172.499 150.2,172.732 149.519,172.732ZM161.768,172.478L154.128,172.478L154.128,149.962L161.913,149.962C164.152,149.962 166.075,150.411 167.682,151.309C169.289,152.208 170.523,153.497 171.386,155.177C172.248,156.856 172.679,158.863 172.679,161.198C172.679,163.542 172.246,165.556 171.38,167.242C170.513,168.927 169.267,170.221 167.639,171.124C166.012,172.027 164.055,172.478 161.768,172.478ZM158.202,153.492L158.202,168.948L161.563,168.948C163.128,168.948 164.437,168.663 165.487,168.092C166.538,167.522 167.327,166.662 167.855,165.511C168.383,164.361 168.647,162.923 168.647,161.198C168.647,159.482 168.385,158.053 167.861,156.911C167.338,155.77 166.557,154.915 165.52,154.345C164.484,153.776 163.201,153.492 161.672,153.492L158.202,153.492ZM174.922,172.478L174.922,149.962L189.574,149.962L189.574,153.383L178.996,153.383L178.996,159.421L188.8,159.421L188.8,162.794L178.996,162.794L178.996,169.057L189.641,169.057L189.641,172.478L174.922,172.478Z" style="fill:white;"/>
    <path d="M89.358,0.098L89.525,0.098L8.556,174.356L0.134,41.366C0.134,41.366 56.936,15.094 89.358,0.098ZM145.29,0.064L145.397,0.064L234.697,41.366L226.275,174.356L145.29,0.064ZM68.676,183.223L166.155,183.223L178.615,213.366L117.415,248.25L56.216,213.367L68.676,183.223Z" style="fill:url(#_Linear3);"/>
    <rect x="297.231" y="50.062" width="4.258" height="148.126" style="fill:rgb(219,220,222);"/>
    <defs>
        <linearGradient id="_Linear1" x1="0" y1="0" x2="1" y2="0" gradientUnits="userSpaceOnUse" gradientTransform="matrix(0.16857,248.992,-248.992,0.16857,117.331,0.08116)"><stop offset="0" style="stop-color:rgb(136,61,191);stop-opacity:1"/><stop offset="1" style="stop-color:rgb(252,47,197);stop-opacity:1"/></linearGradient>
        <linearGradient id="_Linear2" x1="0" y1="0" x2="1" y2="0" gradientUnits="userSpaceOnUse" gradientTransform="matrix(-0.154356,-248.992,248.992,-0.154356,117.493,249.073)"><stop offset="0" style="stop-color:rgb(136,61,191);stop-opacity:1"/><stop offset="1" style="stop-color:rgb(252,47,197);stop-opacity:1"/></linearGradient>
        <linearGradient id="_Linear3" x1="0" y1="0" x2="1" y2="0" gradientUnits="userSpaceOnUse" gradientTransform="matrix(-0.154356,-248.992,248.992,-0.154356,117.493,249.073)"><stop offset="0" style="stop-color:rgb(136,61,191);stop-opacity:1"/><stop offset="1" style="stop-color:rgb(252,47,197);stop-opacity:1"/></linearGradient>
    </defs>
</svg>
