<?xml version="1.0" encoding="UTF-8"?>
<svg width="399px" height="395px" viewBox="0 0 399 395" version="1.1" xmlns="http://www.w3.org/2000/svg" xmlns:xlink="http://www.w3.org/1999/xlink">
    <!-- Generator: Sketch 45.1 (43504) - http://www.bohemiancoding.com/sketch -->
    <title>TypeScript Logo</title>
    <desc>Created with Sketch.</desc>
    <defs></defs>
    <g id="Logos" stroke="none" stroke-width="1" fill="none" fill-rule="evenodd">
        <g id="logo-angular-typescript-schulung" transform="translate(-585.000000, -100.000000)">
            <g id="TypeScript-Logo" transform="translate(585.776644, 100.489570)">
                <g id="Unofficial_JavaScript_logo_2.svg-+-Bitmap">
                    <rect id="Rectangle-1" fill="#0072C4" x="0" y="0" width="398.080777" height="393.811389"></rect>
                    <path d="M236.346486,244.244198 L236.346486,353.419003 L219.354298,353.419003 L219.354298,244.244198 L179.762501,244.244198 L179.762501,228.95123 L277.722462,228.95123 L277.722462,244.244198 L236.346486,244.244198 Z M295.600241,347.72662 L301.80239,332.093808 C304.974281,334.416085 308.924925,336.356007 313.654441,337.913632 C318.383956,339.471257 322.617801,340.250058 326.356101,340.250058 C332.983087,340.250058 338.307253,338.437576 342.328757,334.812558 C346.350261,331.18754 348.360984,326.571375 348.360984,320.963925 C348.360984,316.772498 347.242342,312.878494 345.005027,309.281796 C342.767711,305.685098 337.146185,301.762774 328.14028,297.514706 L318.11489,292.841855 C309.618754,288.876991 303.685707,284.175866 300.315573,278.738339 C296.945439,273.300812 295.260398,266.758885 295.260398,259.112362 C295.260398,249.823253 298.545521,242.120205 305.115866,236.002987 C311.686212,229.885769 320.12558,226.827206 330.434226,226.827206 C344.197966,226.827206 353.770136,229.064488 359.151023,233.53912 L354.138327,248.322323 C351.872691,246.679737 348.417647,245.093815 343.773093,243.564511 C339.128538,242.035206 334.823894,241.270566 330.85903,241.270566 C325.081658,241.270566 320.536293,242.913127 317.2228,246.1983 C313.909307,249.483473 312.252585,253.703157 312.252585,258.85748 C312.252585,262.02937 312.847306,264.918013 314.036765,267.523495 C315.226224,270.128977 316.882946,272.309619 319.00698,274.065487 C321.131014,275.821356 325.478138,278.285198 332.048484,281.457089 L342.243796,286.299862 C350.739932,290.321367 356.701298,295.121612 360.128073,300.700741 C363.554848,306.279871 365.26821,313.374038 365.26821,321.983456 C365.26821,331.329206 361.515806,339.258814 354.010886,345.772519 C346.505966,352.286223 336.466515,355.543026 323.892234,355.543026 C312.847256,355.543026 303.416687,352.937584 295.600241,347.72662 Z" id="TS" fill="#FFFFFF"></path>
                </g>
            </g>
        </g>
    </g>
</svg>