<svg width="542" height="348" viewBox="0 0 542 348" fill="none" xmlns="http://www.w3.org/2000/svg">
<path d="M541.907 53.1533H281.485V310.865H541.907V53.1533Z" fill="#0072C4"/>
<path fill-rule="evenodd" clip-rule="evenodd" d="M436.101 212.988V284.432H424.985V212.988H399.084V202.98H463.169V212.988H436.101ZM474.865 280.707L478.922 270.477C480.997 271.996 483.582 273.266 486.676 274.285C489.77 275.304 492.539 275.814 494.985 275.814C499.32 275.814 502.803 274.628 505.434 272.256C508.065 269.884 509.38 266.863 509.38 263.193C509.38 260.45 508.649 257.902 507.185 255.548C505.721 253.195 502.044 250.628 496.152 247.848L489.594 244.79C484.035 242.195 480.154 239.119 477.949 235.561C475.745 232.002 474.642 227.721 474.642 222.717C474.642 216.639 476.791 211.598 481.09 207.595C485.388 203.591 490.909 201.59 497.653 201.59C506.657 201.59 512.919 203.054 516.439 205.982L513.16 215.656C511.678 214.581 509.417 213.544 506.379 212.543C503.341 211.542 500.524 211.042 497.931 211.042C494.151 211.042 491.178 212.117 489.01 214.266C486.842 216.416 485.758 219.178 485.758 222.551C485.758 224.626 486.148 226.517 486.926 228.222C487.704 229.927 488.788 231.354 490.177 232.503C491.567 233.652 494.411 235.264 498.709 237.34L505.379 240.509C510.937 243.141 514.837 246.282 517.078 249.933C519.32 253.584 520.441 258.226 520.441 263.86C520.441 269.976 517.986 275.165 513.076 279.428C508.167 283.691 501.599 285.822 493.373 285.822C486.147 285.822 479.978 284.117 474.865 280.707Z" fill="white"/>
<path d="M328.761 58.0199L316.89 244.435L203.386 0L328.761 58.0199ZM250.145 299.065L164.382 348L78.6163 299.065L96.0599 256.791H232.701L250.145 299.065ZM164.382 92.7838L209.322 202.04H119.439L164.382 92.7838ZM11.7494 244.435L0 58.0199L125.375 0L11.7494 244.435Z" fill="url(#paint0_linear_1231_211)"/>
<path d="M328.761 58.0199L316.89 244.435L203.386 0L328.761 58.0199ZM250.145 299.065L164.382 348L78.6163 299.065L96.0599 256.791H232.701L250.145 299.065ZM164.382 92.7838L209.322 202.04H119.439L164.382 92.7838ZM11.7494 244.435L0 58.0199L125.375 0L11.7494 244.435Z" fill="url(#paint1_linear_1231_211)"/>
<defs>
<linearGradient id="paint0_linear_1231_211" x1="82.4253" y1="316.434" x2="316.045" y2="192.039" gradientUnits="userSpaceOnUse">
<stop stop-color="#E40035"/>
<stop offset="0.24" stop-color="#F60A48"/>
<stop offset="0.35" stop-color="#F20755"/>
<stop offset="0.49" stop-color="#DC087D"/>
<stop offset="0.75" stop-color="#9717E7"/>
<stop offset="1" stop-color="#6C00F5"/>
</linearGradient>
<linearGradient id="paint1_linear_1231_211" x1="71.8766" y1="41.9602" x2="224.765" y2="237.371" gradientUnits="userSpaceOnUse">
<stop stop-color="#FF31D9"/>
<stop offset="1" stop-color="#FF5BE1" stop-opacity="0"/>
</linearGradient>
</defs>
</svg>
