<svg width="488" height="348" viewBox="0 0 488 348" fill="none" xmlns="http://www.w3.org/2000/svg">
<path d="M487.907 53.1536H227.485V310.865H487.907V53.1536Z" fill="#0072C4"/>
<path fill-rule="evenodd" clip-rule="evenodd" d="M382.101 212.988V284.432H370.985V212.988H345.084V202.98H409.169V212.988H382.101ZM420.865 280.707L424.922 270.477C426.997 271.997 429.582 273.266 432.676 274.285C435.77 275.305 438.539 275.814 440.985 275.814C445.32 275.814 448.803 274.628 451.434 272.256C454.065 269.884 455.38 266.863 455.38 263.193C455.38 260.451 454.649 257.902 453.185 255.549C451.721 253.195 448.044 250.628 442.152 247.848L435.594 244.79C430.035 242.196 426.154 239.119 423.949 235.561C421.745 232.003 420.642 227.722 420.642 222.718C420.642 216.639 422.791 211.598 427.09 207.595C431.388 203.592 436.909 201.59 443.653 201.59C452.657 201.59 458.919 203.054 462.439 205.982L459.16 215.657C457.678 214.582 455.417 213.544 452.379 212.543C449.341 211.542 446.525 211.042 443.931 211.042C440.151 211.042 437.178 212.117 435.01 214.267C432.842 216.416 431.759 219.178 431.759 222.551C431.759 224.626 432.148 226.517 432.926 228.222C433.704 229.927 434.788 231.354 436.177 232.503C437.567 233.652 440.411 235.264 444.709 237.34L451.379 240.509C456.937 243.141 460.837 246.282 463.078 249.933C465.32 253.584 466.441 258.227 466.441 263.861C466.441 269.977 463.986 275.166 459.077 279.428C454.167 283.691 447.599 285.822 439.373 285.822C432.148 285.822 425.978 284.117 420.865 280.707Z" fill="white"/>
<path d="M161.941 0L0 57.768L24.6999 271.962L161.941 348L299.182 271.962L323.881 57.768L161.941 0Z" fill="#DD0031"/>
<path d="M161.941 0V38.628V38.454V214.716V348L299.182 271.962L323.882 57.768L161.941 0Z" fill="#C3002F"/>
<path d="M161.941 38.454L60.7061 265.524H98.4516L118.803 214.716H204.731L225.082 265.524H262.828L161.941 38.454ZM191.511 183.396H132.37L161.941 112.23L191.511 183.396Z" fill="white"/>
</svg>
