<svg width="530" height="348" viewBox="0 0 530 348" fill="none" xmlns="http://www.w3.org/2000/svg">
<path d="M161.941 0L0 57.768L24.6999 271.962L161.941 348L299.182 271.962L323.881 57.768L161.941 0Z" fill="#DD0031"/>
<path d="M161.941 0V38.628V38.454V214.716V348L299.182 271.962L323.882 57.768L161.941 0Z" fill="#C3002F"/>
<path d="M161.941 38.454L60.7061 265.524H98.4516L118.803 214.716H204.731L225.082 265.524H262.828L161.941 38.454ZM191.511 183.396H132.37L161.941 112.23L191.511 183.396Z" fill="white"/>
<path d="M404.5 140.5V94.5H360.5V68.5H404.5V22.5H431.5V68.5H475.5V94.5H431.5V140.5H404.5Z" fill="#C3002F"/>
<path d="M335.04 237.16L334.272 240.04H340.944L340.224 237.16C339.776 235.592 339.344 233.928 338.928 232.168C338.512 230.408 338.096 228.712 337.68 227.08H337.488C337.104 228.744 336.704 230.456 336.288 232.216C335.904 233.944 335.488 235.592 335.04 237.16ZM323.712 253L333.504 221.704H342L351.792 253H344.304L342.384 245.56H332.832L330.912 253H323.712ZM363.132 253.576C361.66 253.576 360.316 253.288 359.1 252.712C357.916 252.136 356.892 251.32 356.028 250.264C355.196 249.176 354.54 247.864 354.06 246.328C353.612 244.792 353.388 243.048 353.388 241.096C353.388 239.144 353.66 237.4 354.204 235.864C354.78 234.328 355.516 233.032 356.412 231.976C357.34 230.888 358.396 230.056 359.58 229.48C360.796 228.904 362.028 228.616 363.276 228.616C364.62 228.616 365.724 228.84 366.588 229.288C367.452 229.736 368.3 230.344 369.132 231.112L368.844 227.464V219.352H375.9V253H370.14L369.66 250.648H369.468C368.636 251.48 367.66 252.184 366.54 252.76C365.42 253.304 364.284 253.576 363.132 253.576ZM364.956 247.816C365.724 247.816 366.412 247.656 367.02 247.336C367.66 247.016 368.268 246.456 368.844 245.656V235.912C368.204 235.336 367.548 234.936 366.876 234.712C366.204 234.488 365.548 234.376 364.908 234.376C363.788 234.376 362.796 234.92 361.932 236.008C361.068 237.064 360.636 238.728 360.636 241C360.636 243.368 361.004 245.096 361.74 246.184C362.508 247.272 363.58 247.816 364.956 247.816ZM387.623 253L379.607 229.192H386.711L389.783 240.424C390.103 241.608 390.407 242.824 390.695 244.072C391.015 245.288 391.335 246.52 391.655 247.768H391.847C392.135 246.52 392.423 245.288 392.711 244.072C393.031 242.824 393.351 241.608 393.671 240.424L396.791 229.192H403.559L395.783 253H387.623ZM412.339 253.576C411.251 253.576 410.259 253.384 409.363 253C408.499 252.648 407.763 252.152 407.155 251.512C406.547 250.84 406.067 250.072 405.715 249.208C405.395 248.344 405.235 247.4 405.235 246.376C405.235 243.88 406.291 241.928 408.403 240.52C410.515 239.112 413.923 238.168 418.627 237.688C418.563 236.632 418.243 235.8 417.667 235.192C417.123 234.552 416.195 234.232 414.883 234.232C413.859 234.232 412.835 234.424 411.811 234.808C410.819 235.192 409.747 235.72 408.595 236.392L406.051 231.736C407.587 230.808 409.187 230.056 410.851 229.48C412.547 228.904 414.339 228.616 416.227 228.616C419.299 228.616 421.635 229.496 423.235 231.256C424.867 232.984 425.683 235.688 425.683 239.368V253H419.923L419.443 250.552H419.251C418.227 251.448 417.155 252.184 416.035 252.76C414.915 253.304 413.683 253.576 412.339 253.576ZM414.739 248.104C415.539 248.104 416.227 247.928 416.803 247.576C417.379 247.224 417.987 246.728 418.627 246.088V241.912C416.131 242.264 414.403 242.776 413.443 243.448C412.483 244.12 412.003 244.92 412.003 245.848C412.003 246.616 412.243 247.192 412.723 247.576C413.235 247.928 413.907 248.104 414.739 248.104ZM431.651 253V229.192H437.411L437.891 232.216H438.083C439.107 231.256 440.227 230.424 441.443 229.72C442.659 228.984 444.083 228.616 445.715 228.616C448.307 228.616 450.179 229.464 451.331 231.16C452.515 232.856 453.107 235.208 453.107 238.216V253H446.051V239.128C446.051 237.4 445.811 236.216 445.331 235.576C444.883 234.936 444.147 234.616 443.123 234.616C442.227 234.616 441.459 234.824 440.819 235.24C440.179 235.624 439.475 236.184 438.707 236.92V253H431.651ZM469.488 253.576C467.824 253.576 466.272 253.304 464.832 252.76C463.424 252.184 462.192 251.368 461.136 250.312C460.08 249.256 459.248 247.96 458.64 246.424C458.032 244.856 457.728 243.08 457.728 241.096C457.728 239.112 458.064 237.352 458.736 235.816C459.408 234.248 460.304 232.936 461.424 231.88C462.576 230.824 463.904 230.024 465.408 229.48C466.912 228.904 468.48 228.616 470.112 228.616C471.584 228.616 472.88 228.856 474 229.336C475.152 229.816 476.176 230.424 477.072 231.16L473.76 235.72C472.64 234.792 471.568 234.328 470.544 234.328C468.816 234.328 467.456 234.936 466.464 236.152C465.472 237.368 464.976 239.016 464.976 241.096C464.976 243.176 465.472 244.824 466.464 246.04C467.488 247.256 468.768 247.864 470.304 247.864C471.072 247.864 471.808 247.704 472.512 247.384C473.248 247.032 473.936 246.616 474.576 246.136L477.36 250.744C476.176 251.768 474.896 252.504 473.52 252.952C472.144 253.368 470.8 253.576 469.488 253.576ZM490.823 253.576C489.127 253.576 487.543 253.304 486.071 252.76C484.599 252.184 483.319 251.368 482.231 250.312C481.143 249.224 480.295 247.912 479.687 246.376C479.079 244.84 478.775 243.08 478.775 241.096C478.775 239.176 479.095 237.448 479.735 235.912C480.375 234.344 481.207 233.032 482.231 231.976C483.287 230.888 484.487 230.056 485.831 229.48C487.175 228.904 488.567 228.616 490.007 228.616C491.703 228.616 493.175 228.904 494.423 229.48C495.703 230.056 496.759 230.856 497.591 231.88C498.455 232.904 499.095 234.12 499.511 235.528C499.927 236.904 500.135 238.408 500.135 240.04C500.135 240.68 500.103 241.288 500.039 241.864C499.975 242.44 499.911 242.872 499.847 243.16H485.591C485.911 244.888 486.615 246.168 487.703 247C488.823 247.8 490.183 248.2 491.783 248.2C493.479 248.2 495.191 247.672 496.919 246.616L499.271 250.888C498.055 251.72 496.695 252.376 495.191 252.856C493.719 253.336 492.263 253.576 490.823 253.576ZM485.543 238.504H494.135C494.135 237.16 493.831 236.072 493.223 235.24C492.615 234.408 491.591 233.992 490.151 233.992C489.031 233.992 488.039 234.36 487.175 235.096C486.343 235.832 485.799 236.968 485.543 238.504ZM513.507 253.576C512.035 253.576 510.691 253.288 509.475 252.712C508.291 252.136 507.267 251.32 506.403 250.264C505.571 249.176 504.915 247.864 504.435 246.328C503.987 244.792 503.763 243.048 503.763 241.096C503.763 239.144 504.035 237.4 504.579 235.864C505.155 234.328 505.891 233.032 506.787 231.976C507.715 230.888 508.771 230.056 509.955 229.48C511.171 228.904 512.403 228.616 513.651 228.616C514.995 228.616 516.099 228.84 516.963 229.288C517.827 229.736 518.675 230.344 519.507 231.112L519.219 227.464V219.352H526.275V253H520.515L520.035 250.648H519.843C519.011 251.48 518.035 252.184 516.915 252.76C515.795 253.304 514.659 253.576 513.507 253.576ZM515.331 247.816C516.099 247.816 516.787 247.656 517.395 247.336C518.035 247.016 518.643 246.456 519.219 245.656V235.912C518.579 235.336 517.923 234.936 517.251 234.712C516.579 234.488 515.923 234.376 515.283 234.376C514.163 234.376 513.171 234.92 512.307 236.008C511.443 237.064 511.011 238.728 511.011 241C511.011 243.368 511.379 245.096 512.115 246.184C512.883 247.272 513.955 247.816 515.331 247.816Z" fill="#495057"/>
</svg>
