<svg width="567" height="349" viewBox="0 0 567 349" fill="none" xmlns="http://www.w3.org/2000/svg">
<g clip-path="url(#clip0)">
<path d="M404.687 0.92041L243.911 58.8624L268.271 272.534L404.687 348.92L541.973 272.534L566.855 58.8624L404.687 0.92041Z" fill="#03A9F4"/>
<path d="M404.687 0.92041V39.5484V215.288V348.92L541.973 272.534L566.855 58.8624L404.687 0.92041Z" fill="#039BE5"/>
<path d="M499.343 79.2204H450.623C449.662 79.2204 448.883 79.9994 448.883 80.9604V129.68C448.883 130.641 449.662 131.42 450.623 131.42H499.343C500.304 131.42 501.083 130.641 501.083 129.68V80.9604C501.083 79.9994 500.304 79.2204 499.343 79.2204Z" fill="white"/>
<path d="M499.343 148.82H450.623C449.662 148.82 448.883 149.599 448.883 150.56V199.28C448.883 200.241 449.662 201.02 450.623 201.02H499.343C500.304 201.02 501.083 200.241 501.083 199.28V150.56C501.083 149.599 500.304 148.82 499.343 148.82Z" fill="white"/>
<path d="M499.343 218.42H450.623C449.662 218.42 448.883 219.199 448.883 220.16V268.88C448.883 269.841 449.662 270.62 450.623 270.62H499.343C500.304 270.62 501.083 269.841 501.083 268.88V220.16C501.083 219.199 500.304 218.42 499.343 218.42Z" fill="white"/>
<path d="M429.743 218.42H381.023C380.062 218.42 379.283 219.199 379.283 220.16V268.88C379.283 269.841 380.062 270.62 381.023 270.62H429.743C430.704 270.62 431.483 269.841 431.483 268.88V220.16C431.483 219.199 430.704 218.42 429.743 218.42Z" fill="white"/>
<path d="M360.143 218.42H311.423C310.462 218.42 309.683 219.199 309.683 220.16V268.88C309.683 269.841 310.462 270.62 311.423 270.62H360.143C361.104 270.62 361.883 269.841 361.883 268.88V220.16C361.883 219.199 361.104 218.42 360.143 218.42Z" fill="white"/>
<path d="M360.143 148.82H311.423C310.462 148.82 309.683 149.599 309.683 150.56V199.28C309.683 200.241 310.462 201.02 311.423 201.02H360.143C361.104 201.02 361.883 200.241 361.883 199.28V150.56C361.883 149.599 361.104 148.82 360.143 148.82Z" fill="white"/>
<path d="M429.743 148.82H381.023C380.062 148.82 379.283 149.599 379.283 150.56V199.28C379.283 200.241 380.062 201.02 381.023 201.02H429.743C430.704 201.02 431.483 200.241 431.483 199.28V150.56C431.483 149.599 430.704 148.82 429.743 148.82Z" fill="white"/>
<path d="M161.941 0.92041L0 58.6884L24.6999 272.882L161.941 348.92L299.182 272.882L323.881 58.6884L161.941 0.92041Z" fill="#DD0031"/>
<path d="M161.941 0.92041V39.5484V39.3744V215.636V348.92L299.182 272.882L323.882 58.6884L161.941 0.92041Z" fill="#C3002F"/>
<path d="M161.941 39.3744L60.7061 266.444H98.4516L118.803 215.636H204.731L225.082 266.444H262.828L161.941 39.3744ZM191.511 184.316H132.37L161.941 113.15L191.511 184.316Z" fill="white"/>
</g>
<defs>
<clipPath id="clip0">
<path d="M0 0.92041H567V348.92H0V0.92041Z" fill="white"/>
</clipPath>
</defs>
</svg>
