<?xml version="1.0" encoding="utf-8"?>
<!-- Generator: Adobe Illustrator 20.0.0, SVG Export Plug-In . SVG Version: 6.00 Build 0)  -->
<svg version="1.1" id="Layer_1" xmlns="http://www.w3.org/2000/svg" xmlns:xlink="http://www.w3.org/1999/xlink" x="0px" y="0px"
	 viewBox="0 0 640 320" enable-background="new 0 0 640 320" xml:space="preserve">
<path id="path37627" fill="#004A93" d="M161.8,163.9h-14.2l7.5-24.5L161.8,163.9z M141,188.7l4.4-14.9h18.1l4.4,14.9h15l-15.9-56.6
	c-0.9-3.7-2.7-4.9-6.6-4.9h-22.1v5.1h1.8c2.7,0,4,0.8,4,2.9c0,1.3,0,2.1-1.3,5.2l-15.9,48.4"/>
<path id="path37629" fill="#004A93" d="M202.1,188.7v-57c0-3-1.8-4.5-4.9-4.5h-13.7v5.1h0.9c2.7,0,4,1.1,4,3.5v52.9"/>
<path id="path37631" fill="#004A93" d="M226.9,188.7v-57c0-3-1.8-4.5-4.9-4.5h-13.7v5.1h0.9c2.7,0,4,1.1,4,3.5v52.9"/>
<path id="path37633" fill="#004A93" d="M252.1,132.6c0-4.1-3.1-6.5-8-6.5c-5.3,0-8,2.4-8,6.5c0,4.2,2.7,6.6,8,6.6
	C249,139.2,252.1,136.8,252.1,132.6 M251.6,188.7v-41.5c0-2.9-1.8-4.6-4.4-4.6h-13.7v5h0.9c2.7,0,3.5,1.1,3.5,3.6v37.4"/>
<path id="path37635" fill="#004A93" d="M284.4,166.3v9.2c-2.7,2.7-5.8,4.2-8.4,4.2s-4-1.3-4-4.7c0-3.8,0.9-5.3,4-6.5
	C278.2,167.6,280.4,167,284.4,166.3 M264.9,155.3l1.3-0.5c3.5-1.4,5.8-1.9,8.4-2.4c1.3-0.2,3.1-0.4,4-0.4c4.4,0,5.8,1.5,5.8,5.5v1.2
	c-6.2,1-8,1.4-11.5,2.1c-1.8,0.4-3.5,1-5.3,1.8c-5.8,2.3-8.4,6.7-8.4,13.7c0,8.7,3.5,12.9,11.5,12.9c3.1,0,6.2-0.7,8.4-2.1
	c2.2-1,3.1-1.5,5.8-4v1.4c0,2.9,1.3,4.2,4,4.2h13.3v-4.7h-0.4c-2.7,0-4-1.2-4-3.6v-22.6c0-11.8-4-15.8-15.5-15.8
	c-4,0-7.5,0.4-11.1,1.3c-3.5,0.8-5.3,1.5-9.3,3.5"/>
<path id="path37637" fill="#004A93" d="M322.9,188.7v-31.2c3.1-2.9,5.3-4,8.4-4s4,1.3,4,6v29.2H349v-31.4c0-6.5-0.9-9.2-2.7-11.7
	c-2.2-2.4-4.9-3.5-8.8-3.5c-5.3,0-9.3,1.9-15.5,7.3v-2.5c0-2.9-1.3-4.3-4-4.3h-13.3v5h0.4c2.7,0,4,1.1,4,3.6v37.4"/>
<g>
	<defs>
		<rect id="SVGID_1_" x="126.9" y="110" width="386.3" height="100"/>
	</defs>
	<clipPath id="SVGID_2_">
		<use xlink:href="#SVGID_1_"  overflow="visible"/>
	</clipPath>
</g>
<g id="g37643" transform="matrix(6.780926,0,0,-6.780926,-9776.146,5300.883)">
	<path id="path37647" fill="#004A93" d="M1511,754.3v7.7c0,0.6-0.3,0.8-0.8,0.8h-1.8v-0.8h0.2c0.3,0,0.5-0.1,0.5-0.5v-7.2H1511z
		 M1512,754.3h1.9v5.8c0,0.6-0.3,0.8-0.8,0.8h-1V754.3z M1508,754.3v6.6h-1c-0.6,0-0.8-0.2-0.8-0.8v-5.8H1508z M1516.1,758.1
		c0-3.6-2.6-6.2-6.1-6.2s-6.1,2.6-6.1,6.2c0,3.6,2.6,6.2,6.1,6.2S1516.1,761.7,1516.1,758.1 M1517.4,758.1c0,4.2-3.1,7.4-7.4,7.4
		c-4.2,0-7.4-3.2-7.4-7.4c0-4.2,3.2-7.4,7.4-7.4C1514.3,750.8,1517.4,753.9,1517.4,758.1"/>
</g>
<path id="path37645" fill="#004A93" d="M391.5,179.9h-20.4l19.5-27.8v-9.5h-29.2c-3.5,0-4.9,1.4-4.9,4.8v8.4h4.9v-0.9
	c0-2.5,1.3-3.5,4-3.5H376l-19.9,27.8v9.6h35.4"/>
</svg>
