<?xml version="1.0" encoding="utf-8"?>
<!-- Generator: Adobe Illustrator 20.0.0, SVG Export Plug-In . SVG Version: 6.00 Build 0)  -->
<svg version="1.1" id="Layer_1" xmlns="http://www.w3.org/2000/svg" xmlns:xlink="http://www.w3.org/1999/xlink" x="0px" y="0px"
	 viewBox="0 0 640 320" enable-background="new 0 0 640 320" xml:space="preserve">
<radialGradient id="path201_1_" cx="138.0892" cy="-213.9379" r="1.0189" gradientTransform="matrix(177.0912 0 0 -177.0912 -23861.2344 -37697.2773)" gradientUnits="userSpaceOnUse">
	<stop  offset="0" style="stop-color:#FEDF33"/>
	<stop  offset="0.44" style="stop-color:#FBB809"/>
	<stop  offset="0.9" style="stop-color:#EE960D"/>
	<stop  offset="1" style="stop-color:#E17A10"/>
</radialGradient>
<path id="path201" fill="url(#path201_1_)" d="M576.6,122.1c-1.6,0-6.4,0-11.7,6.7l0,0l0.3,0.3l0,0c1.3-1.6,3.2-3.5,5.1-4.5l0,0
	c1.9-1.1,3.7-1.9,5.6-2.1l0,0c1.3-0.3,5.3,0,9.9,0l0,0l0,0l0,0v-0.3l0,0l0,0H576.6z"/>
<radialGradient id="path225_1_" cx="138.0859" cy="-213.9295" r="1.0189" gradientTransform="matrix(177.2214 0 0 -177.2214 -23896.2871 -37790.8867)" gradientUnits="userSpaceOnUse">
	<stop  offset="0" style="stop-color:#FEDF33"/>
	<stop  offset="0.44" style="stop-color:#FBB809"/>
	<stop  offset="0.9" style="stop-color:#EE960D"/>
	<stop  offset="1" style="stop-color:#E17A10"/>
</radialGradient>
<path id="path225" fill="url(#path225_1_)" d="M544.6,122.1L544.6,122.1L544.6,122.1l-17.3,29.9l-5.3,9.3l-0.5,1.1v0.3l0,0l0,0
	l16.3,28.3l0,0c-0.3-0.5-0.5-1.1-0.8-1.6l0,0c-0.8-1.6-1.1-3.7-1.1-5.9l0,0c0.3-5.6,3.2-10.9,4.8-13.3l0,0
	c3.5-5.9,10.1-17.6,10.1-17.6l0,0c0,0,6.7-11.5,10.1-17.6l0,0c1.6-2.7,4.8-7.7,9.3-10.7l0,0c1.9-1.1,3.7-1.9,5.6-2.1l0,0
	c1.3-0.3,5.3-0.3,9.9-0.3l0,0h-41.1V122.1z"/>
<radialGradient id="path249_1_" cx="138.0815" cy="-213.9353" r="1.0189" gradientTransform="matrix(177.151 0 0 -177.151 -23935.1152 -37727.75)" gradientUnits="userSpaceOnUse">
	<stop  offset="0" style="stop-color:#FEDF33"/>
	<stop  offset="0.44" style="stop-color:#FBB809"/>
	<stop  offset="0.9" style="stop-color:#EE960D"/>
	<stop  offset="1" style="stop-color:#E17A10"/>
</radialGradient>
<path id="path249" fill="url(#path249_1_)" d="M521.4,162.6c0.3,0.5,0.5,0.8,0.8,1.3l0,0L521.4,162.6z M603.8,171.1
	c-1.1,1.3-2.7,2.7-4.5,3.7l0,0c-4.8,2.4-10.9,2.7-13.9,2.7l0,0h-20.3h-20.3c-2.9,0-9.1-0.3-13.9-2.7l0,0c-1.9-1.1-3.5-2.4-4.5-3.7
	l0,0c-0.5-0.8-2.1-3.7-4.3-6.9l0,0l4,7.2l15.5,26.7l0,0l0,0h46.7l0,0l0,0l20.3-35.2C606.5,166.6,604.3,170.1,603.8,171.1"/>
<radialGradient id="path273_1_" cx="138.0831" cy="-213.9319" r="1.0189" gradientTransform="matrix(177.647 0 0 -177.647 -23936.9316 -37814.918)" gradientUnits="userSpaceOnUse">
	<stop  offset="0" style="stop-color:#FEDF33"/>
	<stop  offset="0.44" style="stop-color:#FBB809"/>
	<stop  offset="0.9" style="stop-color:#EE960D"/>
	<stop  offset="1" style="stop-color:#D87301"/>
</radialGradient>
<path id="path273" fill="url(#path273_1_)" d="M575.5,122.1c-1.6,0.3-3.7,0.8-5.6,2.1l0,0c-1.9,1.3-3.7,2.9-5.1,4.5l0,0
	c1.9,2.4,3.5,4.8,4.3,6.1l0,0c3.5,5.9,10.1,17.6,10.1,17.6l0,0c0,0,6.7,11.5,10.1,17.6l0,0c1.3,2.7,4.3,8,4.5,13.3l0,0
	c0,2.1-0.3,4.3-1.1,5.9l0,0c-0.5,1.1-2.4,4.3-4.5,8.3l0,0l20.3-34.9l0,0l0,0l0,0l0,0l0,0l-23.2-40.3l0,0l0,0
	C580.9,122.1,576.9,122.1,575.5,122.1"/>
<path id="path177" fill="#1A1A1A" d="M51.8,142.6c-11.5,0-20.8,9.6-20.8,21.3c0,12.5,9.1,21.1,20.3,21.1c6.4,0,11.2-2.4,15.2-6.7
	l-5.6-5.6c-2.4,2.4-5.3,3.7-9.1,3.7c-6.4,0-10.9-5.6-10.9-12.8s4.5-12.8,10.9-12.8c3.2,0,6.1,1.3,8.5,3.5l5.9-5.9
	C62.5,145,57.7,142.6,51.8,142.6z M91,142.6c-12.3,0-21.3,9.6-21.3,21.3c0,12,8.8,21.1,21.1,21.1s21.3-9.6,21.3-21.3
	C112.1,151.9,103.5,142.6,91,142.6z M121.9,143.4l-4,41.1h8.5l1.9-22.1c0.3-4.3,0.5-8.8,0.5-8.8h0.3c0,0,1.1,4.5,2.1,8.5l6.9,22.4h8
	l6.9-22.7c1.3-4,2.1-8.3,2.1-8.3h0.3c0,0,0,4.5,0.5,8.8l1.9,22.1h9.1l-4-41.1h-12l-6.4,20.3c-1.1,3.2-2.1,7.5-2.1,7.5
	s-1.1-4.3-2.1-7.7l-6.4-20.3h-12V143.4z M179.3,143.4l-4,41.1h8.5l1.9-22.1c0.3-4.3,0.5-8.8,0.5-8.8h0.3c0,0,1.1,4.5,2.1,8.5
	l6.9,22.4h8l6.9-22.7c1.3-4,2.1-8.3,2.1-8.3h0.3c0,0,0,4.5,0.5,8.8l1.9,22.1h9.1l-4-41.1h-12l-6.1,20.3c-1.1,3.2-2.1,7.5-2.1,7.5
	s-1.1-4.3-2.1-7.7l-6.4-20.3h-12.3V143.4z M233.9,143.4v41.1h26.7v-8H243v-9.1h14.9v-7.7H243v-8.8h17.3v-7.7h-26.4V143.4z
	 M271,143.4v41.1h9.1v-14.9h2.7l8.8,14.9h10.7l-10.1-16.5c5.3-1.9,8.3-6.1,8.3-11.5c0-8.3-4.8-13.1-17.1-13.1H271z M307.8,143.4v7.7
	h16.5l-17.1,26.4v6.7h28.5v-8h-17.3l17.1-26.4v-6.7h-27.7V143.4z M345.4,143.4v41.1h15.7c7.2,0,15.5-3.2,15.5-11.7
	c0-5.3-3.5-8.8-8.8-9.6l0,0c4.3-1.3,6.9-4.5,6.9-9.1c0-8.8-7.7-10.4-14.9-10.4h-14.4V143.4z M393.9,143.4l-14.7,41.1h9.1l2.9-8.3h16
	l2.9,8.3h9.6l-14.7-41.1H393.9z M425.1,143.4v41.1h8.3V165c0-3.7-0.3-7.5-0.3-7.5s1.9,3.2,4,6.4l13.9,20.5h8v-41.1h-8.3v18.7
	c0,3.7,0.3,7.5,0.3,7.5s-1.9-3.2-4-6.4l-13.3-19.5h-8.5V143.4z M469.1,143.4v41.1h8.8v-19.2l13.1,19.2h10.9l-15.2-22.1l13.6-18.9
	h-10.4l-12.3,18.4v-18.4L469.1,143.4L469.1,143.4z M90.7,151.1c7.2,0,11.7,5.6,11.7,12.8c0,6.9-4.3,12.8-11.7,12.8
	c-7.2,0-11.7-5.6-11.7-12.8C79.3,157,83.5,151.1,90.7,151.1z M280.1,151.1h3.7c4.8,0,7.5,1.3,7.5,5.3c0,3.7-2.7,5.6-7.5,5.6h-3.7
	V151.1z M354.2,151.1h5.1c2.9,0,5.6,0.8,5.6,4.3c0,3.2-2.4,4.5-5.3,4.5h-5.6v-8.8H354.2z M399.3,151.7c0,0,0.8,2.7,1.9,5.9l3.7,10.9
	h-10.7l3.7-10.9C398.5,154.3,399.3,151.7,399.3,151.7z M354.2,167.4h6.7c4,0,6.7,1.3,6.7,4.5s-2.1,4.8-6.7,4.8h-6.7V167.4z"/>
</svg>
