<?xml version="1.0" encoding="utf-8"?>
<!-- Generator: Adobe Illustrator 20.0.0, SVG Export Plug-In . SVG Version: 6.00 Build 0)  -->
<svg version="1.1" id="Layer_1" xmlns="http://www.w3.org/2000/svg" xmlns:xlink="http://www.w3.org/1999/xlink" x="0px" y="0px"
	 viewBox="0 0 640 320" enable-background="new 0 0 640 320" xml:space="preserve">
<path id="path4654" fill="#666666" d="M366,118.7v28l14.5,15l-14.5,15v28l41-43L366,118.7z"/>
<path id="path4656" fill="#666666" d="M330.3,146.8c0-6.1-3.4-9.7-11.5-9.7c-1.8,0-3.8,0.1-4.8,0.2v19.8c0.9,0.1,2.7,0.2,4.3,0.2
	C325.7,157.4,330.3,153.4,330.3,146.8 M353.3,200.3h-20.9l-17.7-30.2H314v30.2h-17.2V123c6.3-0.5,14.3-0.6,23.3-0.6
	c17.6,0,27.8,6.6,27.8,23c0,10.4-6.2,18.9-16.1,21.4c2,3,3.9,5.8,5.7,8.7L353.3,200.3L353.3,200.3z"/>
<path id="path4658" fill="#666666" d="M180.7,201.5c-5.2,0-10.6-0.6-15.3-1.7l0.8-16.9c4.3,1.6,10.6,3.3,15.8,3.3
	c6.4,0,10.9-2.8,10.9-8.3c0-13.2-29.2-6.7-29.9-32.3c-0.3-14.5,11.1-24.1,29.7-24.1c4,0,8.9,0.5,13.6,1.4v15.8
	c-4.2-1.3-9.8-2.4-14.2-2.4c-7.2,0-10.7,3.2-10.7,7.6c0,12,29.8,7.5,29.8,31.6C211.3,190.3,199.8,201.5,180.7,201.5"/>
<path id="path4660" fill="#666666" d="M275.3,123l-7.5,47.9l-7.5-47.9h-3.9h-9.5H243l-7.5,47.9L228,123h-17.3l13.2,77.4h6h11.3h2.1
	l8.4-49.7l8.4,49.7h2.1h11.3h6l13.2-77.4L275.3,123L275.3,123z"/>
<path id="path4662" fill="#666666" d="M402.8,118.7v28l14.5,15l-14.5,15v28l41-43L402.8,118.7z"/>
<path id="path4664" fill="#666666" d="M459.4,115.4c9.7,0,17.5,8.1,17.5,18.1s-7.8,18.1-17.5,18.1s-17.5-8.1-17.5-18.1
	S449.7,115.4,459.4,115.4 M466.4,140.8v-18.1l-17.6,6.5v4.5l5.8-2.2v13.6L466.4,140.8L466.4,140.8z M459.4,118
	c-8.2,0-14.9,6.9-14.9,15.5c0,8.5,6.7,15.5,14.9,15.5c8.3,0,15-6.9,15-15.5S467.7,118,459.4,118"/>
</svg>
