<svg width="351" height="372" viewBox="0 0 351 372" fill="none" xmlns="http://www.w3.org/2000/svg">
<path d="M27.7297 290.766L175.172 371.803L323.373 289.669L351 60.5382L174.986 0.0787354L0.092041 61.6274L27.7297 290.766Z" fill="#B3B3B3"/>
<path d="M174.578 352.442L307.808 278.706L333.555 73.7807L174.578 19.567V352.442Z" fill="#A6120D"/>
<path d="M174.575 352.442V19.5607L19.718 74.7578L43.4005 279.685L174.575 352.442Z" fill="#DD1B16"/>
<path d="M218.338 196.772L174.578 217.236H128.454L106.772 271.466L66.4443 272.213L174.578 31.6547L218.338 196.772ZM214.108 186.47L174.867 108.785L142.68 185.133H174.575L214.108 186.47Z" fill="#F2F2F2"/>
<path d="M211.388 185.192H174.658L174.575 217.187L225.365 217.236L249.102 272.221L287.69 272.936L174.575 31.6547L174.865 108.785L211.388 185.192Z" fill="#B3B3B3"/>
</svg>
