<svg width="350" height="348" viewBox="0 0 350 348" fill="none" xmlns="http://www.w3.org/2000/svg">
<g clip-path="url(#clip0)">
<path d="M205.549 0C203.024 0 200.68 0.54136 198.517 1.26313C203.115 4.33074 205.639 8.39085 206.901 12.9923C206.991 13.6238 207.172 14.075 207.262 14.7065C207.352 15.2479 207.442 15.7892 207.442 16.3306C207.803 24.2702 205.368 25.2627 203.656 29.9543C201.041 35.9994 201.762 42.4955 204.918 47.7285C205.188 48.36 205.549 49.0818 206 49.7134C202.574 26.8867 221.596 23.4582 225.112 16.3306C225.382 10.1051 220.244 5.95478 216.187 3.06761C212.31 0.721793 208.794 0 205.549 0ZM234.217 5.14277C233.857 7.21791 234.127 6.67657 234.037 7.75927C233.947 8.48105 233.947 9.38331 233.857 10.1051C233.677 10.8269 233.496 11.5487 233.226 12.2705C233.046 12.9923 232.775 13.7141 232.505 14.4358C232.144 15.1577 231.874 15.7892 231.513 16.511C231.243 16.872 231.062 17.2328 230.792 17.5937C230.612 17.8644 230.431 18.135 230.251 18.4057C229.8 19.0373 229.349 19.6688 228.899 20.2102C228.358 20.7515 227.907 21.3831 227.276 21.8342C227.276 21.9246 227.276 21.9246 227.276 21.9246C226.735 22.3757 226.194 22.917 225.563 23.3681C223.67 24.8117 221.506 25.8944 219.523 27.2478C218.892 27.6989 218.261 28.0598 217.72 28.6011C217.089 29.0522 216.548 29.5033 216.007 30.0447C215.376 30.586 214.925 31.1274 214.384 31.759C213.933 32.3003 213.392 32.9319 213.032 33.5635C212.581 34.195 212.13 34.8266 211.77 35.4581C211.409 36.1799 211.139 36.8115 210.778 37.5333C210.507 38.2551 210.237 38.8867 210.057 39.6084C209.786 40.4205 209.606 41.1422 209.426 41.8641C209.335 42.2251 209.335 42.676 209.245 43.037C209.155 43.398 209.155 43.7587 209.065 44.1197C209.065 44.8414 208.975 45.6535 208.975 46.3752C208.975 46.9166 208.975 47.4579 209.065 47.9993C209.065 48.7211 209.156 49.4428 209.336 50.2549C209.426 50.9766 209.606 51.6984 209.787 52.4203C210.057 53.142 210.237 53.8638 210.508 54.5856C210.688 55.0368 210.958 55.4879 211.139 55.8487L190.404 47.8188C186.888 46.8264 183.462 45.9241 179.946 45.1121C178.053 44.661 176.159 44.2099 174.266 43.7587C168.857 42.6761 163.358 41.8641 157.858 41.3227C157.678 41.3227 157.588 41.2324 157.407 41.2324C151.998 40.691 146.679 40.4204 141.27 40.4204C137.303 40.4204 133.337 40.6007 129.46 40.8715C123.961 41.2325 118.461 41.9542 112.962 42.8564C111.61 43.0367 110.257 43.3075 108.905 43.5782C106.11 44.1195 103.406 44.7511 100.791 45.3827C99.4389 45.7437 98.0866 46.1045 96.7343 46.4653C95.382 47.0067 94.1199 47.6383 92.8577 48.1796C91.866 48.6307 90.8743 49.0818 89.8827 49.533C89.7025 49.6233 89.5219 49.6233 89.4319 49.7133C88.5303 50.1644 87.719 50.5253 86.9076 50.9764C86.6372 51.0668 86.4568 51.1567 86.2765 51.2471C85.2849 51.6982 84.2932 52.2396 83.4818 52.6907C82.8507 52.9613 82.2197 53.3223 81.6787 53.5929C81.4083 53.7732 81.0476 53.954 80.8673 54.044C80.056 54.4952 79.2446 54.9463 78.5234 55.3974C77.712 55.8485 76.9907 56.2996 76.3596 56.7507C75.7286 57.2019 75.0975 57.5628 74.5566 58.0139C74.4663 58.1042 74.3764 58.1042 74.2861 58.1942C73.7452 58.5552 73.1142 59.0062 72.5732 59.4573C72.5732 59.4573 72.4829 59.5477 72.3931 59.6377C71.9423 59.9987 71.4915 60.3594 71.0408 60.7203C70.8606 60.8107 70.68 60.991 70.4998 61.0813C70.0491 61.4424 69.5983 61.8934 69.1476 62.2543C69.0573 62.4346 68.8771 62.525 68.7868 62.6153C68.2459 63.1567 67.705 63.6078 67.164 64.1491C67.0737 64.1491 67.0737 64.2395 66.9839 64.3294C66.443 64.7805 65.902 65.3219 65.3611 65.8632C65.2708 65.9536 65.2708 66.0435 65.1809 66.0435C64.7302 66.4947 64.2794 66.9458 63.8286 67.4871C63.6485 67.6674 63.3779 67.8482 63.1976 68.0285C62.7468 68.5698 62.2059 69.1112 61.665 69.6525C61.5747 69.8328 61.3945 69.9232 61.3042 70.1036C60.583 70.8254 59.9519 71.5472 59.2307 72.269C59.1404 72.3594 59.0505 72.4493 58.9602 72.5397C57.5178 74.0735 55.9852 75.6073 54.3624 76.9606C52.7397 78.4042 51.0268 79.7576 49.3138 80.9305C47.5108 82.1936 45.7979 83.2763 43.9046 84.359C42.1016 85.3514 40.2083 86.2537 38.225 87.0657C36.3317 87.8777 34.3484 88.5996 32.365 89.2311C28.5786 90.0431 24.702 91.5769 21.3663 91.8476C20.6451 91.8476 19.8337 92.0279 19.1125 92.1182C18.3011 92.2986 17.5799 92.4793 16.8587 92.6596C16.1375 92.9303 15.4162 93.201 14.695 93.4716C13.9738 93.7423 13.2525 94.1032 12.5313 94.4641C11.9002 94.9152 11.179 95.2761 10.5479 95.7272C9.91687 96.1783 9.28578 96.7197 8.74485 97.261C8.11381 97.7122 7.48271 98.3437 6.94179 98.885C6.40087 99.5167 5.85994 100.058 5.40919 100.69C4.95843 101.411 4.41751 102.043 4.05688 102.765C3.60612 103.396 3.15537 104.118 2.79474 104.84C2.43398 105.652 2.07352 106.374 1.80306 107.186C1.5326 107.907 1.26214 108.719 0.991674 109.532C0.811508 110.253 0.630917 110.975 0.540919 111.697C0.540919 111.787 0.450627 111.877 0.450627 111.968C0.27046 112.78 0.27046 113.862 0.180164 114.404C0.0898724 115.035 0 115.576 0 116.208C0 116.569 0 117.02 0.090292 117.381C0.180584 118.013 0.270456 118.554 0.451049 119.095C0.631214 119.637 0.811806 120.178 1.0821 120.719C1.0821 120.81 1.0821 120.81 1.0821 120.81C1.35256 121.351 1.71319 121.892 2.07378 122.434C2.43453 122.975 2.79504 123.516 3.24579 124.058C3.69655 124.509 4.23747 125.05 4.77839 125.501C5.31932 126.043 5.86024 126.494 6.49129 126.945C8.65498 128.84 9.19591 129.471 11.9907 130.915C12.4414 131.185 12.8922 131.366 13.4331 131.637C13.5234 131.637 13.6133 131.727 13.7036 131.727C13.7036 131.907 13.7036 131.998 13.7939 132.178C13.8842 132.9 14.0644 133.622 14.2447 134.343C14.4248 135.155 14.6955 135.877 14.9659 136.509C15.2364 137.05 15.4167 137.591 15.6871 138.133C15.7774 138.313 15.8673 138.494 15.9576 138.584C16.3183 139.306 16.6788 139.937 17.0394 140.569C17.4902 141.2 17.941 141.832 18.3917 142.464C18.8425 143.005 19.3834 143.636 19.9243 144.178C20.4652 144.719 21.0062 145.17 21.6372 145.712C21.6372 145.712 21.7276 145.802 21.8174 145.802C22.3583 146.253 22.8993 146.704 23.4402 147.065C24.0712 147.516 24.7023 147.877 25.4235 148.238C26.0546 148.599 26.7759 148.96 27.4971 149.231C28.038 149.501 28.669 149.682 29.3001 149.862C29.3904 149.953 29.4803 149.953 29.6609 150.042C30.0216 150.133 30.4722 150.223 30.8329 150.313C30.5624 155.185 30.4721 159.787 31.1936 161.411C32.005 163.215 35.9717 157.712 39.9385 151.396C39.3976 157.621 39.0369 164.929 39.9385 167.095C40.9302 169.35 46.3393 162.313 51.0273 154.554C114.946 139.757 173.275 183.967 179.406 246.402C178.234 236.657 166.243 231.244 160.744 232.597C158.039 239.274 153.441 247.845 146.049 253.168C146.68 247.214 146.41 241.078 145.147 235.124C143.164 243.424 139.287 251.184 133.968 257.86C125.404 258.492 116.839 254.341 112.332 248.116C111.971 247.845 111.881 247.304 111.61 246.943C111.34 246.311 111.069 245.68 110.889 245.048C110.619 244.417 110.438 243.785 110.348 243.154C110.258 242.522 110.258 241.89 110.258 241.169C110.258 240.718 110.258 240.266 110.258 239.815C110.348 239.184 110.528 238.552 110.709 237.921C110.889 237.289 111.069 236.657 111.34 236.026C111.7 235.394 111.971 234.763 112.422 234.131C113.954 229.8 113.954 226.282 111.159 224.207C110.618 223.846 110.078 223.575 109.446 223.304C109.086 223.214 108.635 223.034 108.274 222.943C108.004 222.853 107.824 222.763 107.553 222.673C106.922 222.492 106.291 222.312 105.66 222.221C105.029 222.041 104.398 221.951 103.767 221.951C103.136 221.86 102.414 221.77 101.783 221.77C101.333 221.77 100.882 221.861 100.431 221.861C99.7099 221.861 99.0788 221.951 98.4478 222.131C97.8167 222.222 97.1856 222.312 96.5545 222.493C95.9235 222.673 95.2924 222.854 94.6613 223.124C94.0303 223.395 93.4893 223.665 92.8582 223.936C92.3174 224.207 91.7764 224.568 91.1454 224.838C70.1396 238.552 82.671 270.672 97.0053 279.965C91.5961 280.958 86.0968 282.131 84.5642 283.303C84.4739 283.394 84.384 283.484 84.384 283.484C88.2606 285.83 92.3175 287.815 96.5547 289.529C102.324 291.423 108.455 293.138 111.16 293.86V293.95C118.642 295.484 126.215 296.025 133.878 295.574C173.816 292.777 206.542 262.371 212.492 222.312C212.672 223.124 212.853 223.846 213.033 224.658C213.303 226.282 213.664 227.996 213.844 229.71C213.844 229.71 213.844 229.71 213.844 229.801C214.024 230.613 214.115 231.425 214.205 232.147C214.205 232.327 214.205 232.417 214.205 232.508C214.295 233.32 214.385 234.132 214.385 234.854C214.475 235.846 214.565 236.838 214.565 237.831C214.565 238.282 214.565 238.733 214.565 239.275C214.565 239.726 214.655 240.267 214.655 240.718C214.655 241.26 214.565 241.801 214.565 242.342C214.565 242.793 214.565 243.244 214.565 243.605C214.565 244.237 214.475 244.778 214.475 245.41C214.475 245.771 214.475 246.132 214.385 246.583C214.385 247.214 214.294 247.846 214.294 248.568C214.204 248.838 214.204 249.109 214.204 249.38C214.114 250.101 214.024 250.733 213.933 251.455C213.933 251.725 213.933 251.996 213.843 252.267C213.753 253.169 213.573 253.981 213.482 254.883V254.974V255.064C213.302 255.876 213.122 256.778 212.941 257.59C212.941 257.681 212.941 257.771 212.941 257.861C212.761 258.673 212.581 259.485 212.401 260.297C212.401 260.388 212.31 260.568 212.31 260.658C212.13 261.47 211.949 262.282 211.679 263.094C211.679 263.185 211.679 263.274 211.679 263.365C211.409 264.267 211.138 265.079 210.958 265.891C210.868 265.981 210.868 266.071 210.868 266.071C210.597 266.974 210.327 267.876 210.056 268.778C209.696 269.68 209.425 270.492 209.065 271.395C208.704 272.297 208.434 273.199 208.073 274.011C207.712 274.913 207.352 275.725 206.991 276.628H206.901C206.54 277.44 206.179 278.342 205.729 279.154C205.638 279.425 205.549 279.605 205.458 279.785C205.368 279.876 205.368 279.966 205.278 280.056C199.418 291.875 190.763 302.251 179.945 310.371C179.224 310.823 178.503 311.364 177.781 311.905C177.601 312.085 177.331 312.176 177.15 312.356C176.519 312.807 175.888 313.258 175.167 313.71L175.437 314.251H175.528C176.79 314.071 178.052 313.89 179.314 313.71H179.404C181.748 313.349 184.092 312.898 186.436 312.447C187.067 312.356 187.789 312.176 188.42 311.995C188.87 311.905 189.231 311.815 189.682 311.725C190.313 311.634 190.944 311.454 191.575 311.364C192.116 311.183 192.657 311.093 193.198 310.913C202.213 308.747 210.958 305.77 219.342 302.251C205.008 321.83 185.805 337.619 163.357 347.995C173.725 347.273 184.092 345.559 194.099 342.671C230.431 331.935 260.993 307.484 279.294 274.552C275.598 295.394 267.304 315.243 255.043 332.566C263.788 326.792 271.811 320.115 279.114 312.537C299.308 291.424 312.561 264.628 317.068 235.846C320.134 250.102 321.035 264.808 319.683 279.334C384.773 188.479 325.092 94.2848 300.12 69.4732C300.029 69.2929 299.939 69.2026 299.939 69.0221C299.849 69.1125 299.849 69.1125 299.849 69.2024C299.849 69.1121 299.849 69.1121 299.759 69.0221C299.759 70.1048 299.668 71.1875 299.579 72.2702C299.308 74.3453 299.038 76.3302 298.677 78.3152C298.226 80.3001 297.685 82.285 297.144 84.27C296.513 86.1646 295.792 88.1496 294.981 90.0443C294.169 91.8487 293.268 93.7435 292.276 95.548C291.284 97.2622 290.203 99.0667 289.031 100.691C287.859 102.405 286.596 104.029 285.334 105.563C283.982 107.187 282.54 108.63 281.097 110.074C280.196 110.886 279.384 111.608 278.483 112.33C277.761 112.961 277.13 113.503 276.409 114.134C274.786 115.397 273.164 116.57 271.361 117.653C269.648 118.735 267.845 119.818 266.042 120.72C264.148 121.623 262.255 122.435 260.362 123.247C258.469 123.968 256.485 124.6 254.502 125.141C252.519 125.683 250.445 126.134 248.462 126.495C246.388 126.856 244.315 127.036 242.331 127.217C240.889 127.307 239.446 127.397 238.004 127.397C235.93 127.397 233.857 127.217 231.873 127.036C229.8 126.856 227.726 126.585 225.743 126.134C223.67 125.773 221.686 125.231 219.703 124.6H219.613C221.596 124.419 223.579 124.239 225.563 123.878C227.636 123.517 229.62 123.066 231.603 122.525C233.586 121.983 235.57 121.352 237.463 120.63C239.446 119.908 241.339 119.006 243.143 118.104C245.036 117.201 246.749 116.209 248.552 115.126C250.265 113.953 251.978 112.78 253.6 111.517C255.223 110.254 256.756 108.901 258.198 107.457C259.731 106.104 261.083 104.57 262.435 103.036C263.788 101.412 265.05 99.7882 266.222 98.1642C266.402 97.8935 266.583 97.5326 266.763 97.2619C267.664 95.8183 268.566 94.3747 269.377 92.9311C270.369 91.1267 271.27 89.3222 272.082 87.4275C272.893 85.5328 273.614 83.6381 274.245 81.6532C274.876 79.7584 275.327 77.7735 275.778 75.7886C276.139 73.7135 276.499 71.7285 276.68 69.7436C276.86 67.6685 277.04 65.5933 277.04 63.6084C277.04 62.1648 276.95 60.7212 276.86 59.2777C276.68 57.2025 276.409 55.2175 276.139 53.2326C275.778 51.1575 275.328 49.1726 274.787 47.1876C274.156 45.2929 273.524 43.308 272.803 41.4133C272.082 39.5186 271.18 37.6239 270.279 35.8194C269.287 34.0149 268.296 32.2104 267.214 30.4962C266.042 28.782 264.87 27.1579 263.608 25.5339C262.255 24.0001 260.903 22.4663 259.46 20.9325C258.739 20.2107 257.928 19.3987 257.117 18.6769C253.06 15.519 248.822 12.5416 244.585 9.83492C243.954 9.47389 243.413 9.20334 242.782 8.93265C239.807 7.03798 237.012 6.04548 234.218 5.14327L234.217 5.14277Z" fill="#E0234E"/>
</g>
<defs>
<clipPath id="clip0">
<path d="M0 0H349.091V348H0V0Z" fill="white"/>
</clipPath>
</defs>
</svg>
