<?xml version="1.0" encoding="UTF-8" standalone="no"?>
<svg width="319px" height="335px" viewBox="0 0 319 335" version="1.1" xmlns="http://www.w3.org/2000/svg" xmlns:xlink="http://www.w3.org/1999/xlink">
    <!-- Generator: Sketch 3.7.2 (28276) - http://www.bohemiancoding.com/sketch -->
    <title>angularjs-de-logo</title>
    <desc>Created with Sketch.</desc>
    <defs></defs>
    <g id="Page-1" stroke="none" stroke-width="1" fill="none" fill-rule="evenodd">
        <g id="AngularJS.DE" transform="translate(-58.000000, -60.000000)">
            <g id="angularjs-de-logo" transform="translate(38.136525, 54.068262)">
                <polygon id="Shape" fill="#A6120D" points="338.765818 61.9590833 177.598124 6.53134701 177.598124 340.208193 313.059587 269.179776"></polygon>
                <polygon id="Shape" fill="#DD1B16" points="20.0646472 63.5333009 44.2247869 270.1231 177.595974 340.208193 177.595974 7.01020352"></polygon>
                <path d="M222.091745,190.254332 L177.598124,209.966338 L130.702407,209.966338 L108.657743,262.205699 L67.6543663,262.924907 L177.598124,31.1993317 L222.091745,190.254332 L222.091745,190.254332 Z M217.790767,180.330076 L177.892741,105.497802 L145.166597,179.042429 L177.595974,179.042429 L217.790767,180.330076 L217.790767,180.330076 Z" id="Shape" fill="#F2F2F2"></path>
                <polygon id="Shape" fill="#B3B3B3" points="177.595974 31.1993317 177.890591 105.497802 215.025238 179.099477 177.679843 179.099477 177.595974 209.919477 229.23567 209.966338 253.37061 262.933057 292.604134 263.621704"></polygon>
                <g id="DE" transform="translate(132.000000, 253.000000)">
                    <polygon id="E" fill="#C8C8C8" points="58.3440732 1.28829837 88.4100621 1.28829837 88.4100621 9.49908722 68.2105174 9.49908722 68.2105174 19.0993942 86.5434375 19.0993942 86.5434375 27.310183 68.2105174 27.310183 68.2105174 37.2894495 88.7433879 37.2894495 88.7433879 45.5002383 58.3440732 45.5002383"></polygon>
                    <path d="M0.362584971,1.28829837 C1.25993539,1.16197791 2.28983349,1.05671244 3.45231017,0.972498799 C4.61478685,0.888285159 5.81803414,0.825125876 7.06208813,0.783019056 C8.30614212,0.740912236 9.51958642,0.709332595 10.7024574,0.688279185 C11.8853284,0.667225775 12.9458176,0.656699228 13.8839566,0.656699228 C17.9628222,0.656699228 21.4603969,1.21460622 24.3767858,2.33043695 C27.2931746,3.44626768 29.6792752,4.99367011 31.535159,6.97269065 C33.3910428,8.95171119 34.7472453,11.3096577 35.6038071,14.046601 C36.4603688,16.7835443 36.8886433,19.7730837 36.8886433,23.0153089 C36.8886433,25.9627863 36.4705658,28.8260071 35.6343984,31.6050572 C34.798231,34.3841073 33.4420285,36.8578459 31.5657504,39.0263471 C29.6894722,41.1948483 27.2421896,42.9317286 24.2238291,44.23704 C21.2054686,45.5423514 17.4937566,46.1949974 13.0885818,46.1949974 C12.3951747,46.1949974 11.4468527,46.1739443 10.2435873,46.1318375 C9.04032201,46.0897306 7.79628668,46.0370979 6.51144403,45.9739377 C5.22660139,45.9107774 4.0233541,45.8476182 2.90166608,45.7844579 C1.77997805,45.7212977 0.933626147,45.6476119 0.362584971,45.5633982 L0.362584971,1.28829837 Z M14.8144377,9.85563512 C13.9399747,9.85563512 13.046515,9.86544718 12.1340319,9.88507159 C11.2215488,9.904696 10.5181869,9.9537563 10.0239252,10.0322539 L10.0239252,36.7605697 C10.2140259,36.7998185 10.5086775,36.8292547 10.9078888,36.8488791 C11.3071002,36.8685035 11.7253153,36.8881277 12.1625468,36.9077521 C12.5997783,36.9273765 13.0179935,36.9470006 13.4172049,36.966625 C13.8164162,36.9862494 14.1110678,36.9960615 14.3011685,36.9960615 C16.7344568,36.9960615 18.7494935,36.6035791 20.3463389,35.8186026 C21.9431844,35.0336261 23.2073348,33.9935479 24.1388279,32.6983367 C25.0703211,31.4031255 25.7261585,29.9313167 26.1063598,28.282866 C26.4865611,26.6344154 26.6766589,24.9271172 26.6766589,23.1609201 C26.6766589,21.7087136 26.5055709,20.1976565 26.1633897,18.6277035 C25.8212086,17.0577505 25.2033907,15.6251899 24.3099177,14.3299787 C23.4164446,13.0347675 22.2093236,11.9652531 20.6885184,11.1214034 C19.1677132,10.2775537 17.2097059,9.85563512 14.8144377,9.85563512 L14.8144377,9.85563512 Z" id="D" fill="#F2F2F2"></path>
                </g>
            </g>
        </g>
    </g>
</svg>