<svg width="333" height="348" viewBox="0 0 333 348" fill="none" xmlns="http://www.w3.org/2000/svg">
<g clip-path="url(#clip0)">
<path fill-rule="evenodd" clip-rule="evenodd" d="M4 57.7684L165.941 0.000366211L327.881 57.7684L303.182 271.962L165.941 348L28.6999 271.962L4 57.7684ZM64.7061 265.524L165.941 38.4543L266.828 265.524H229.082L208.731 214.716H122.803L102.452 265.524H64.7061ZM165.941 112.23L136.37 183.396H195.511L165.941 112.23Z" fill="white"/>
<path fill-rule="evenodd" clip-rule="evenodd" d="M165.941 38.4544V0.000366211L327.882 57.7684L303.182 271.962L165.941 348V214.716L208.731 214.716L229.082 265.524H266.827L165.941 38.4544ZM165.941 112.231L165.941 112.23V38.4543L165.941 38.4544V38.6284V112.231ZM165.941 112.231L195.511 183.396H165.941V112.231ZM165.941 183.396V214.716L165.941 214.716L165.941 183.396H165.941Z" fill="#C9C9C9"/>
<path d="M227.643 212.917L195.678 141.505L215.831 132.484C221.307 130.032 226.546 128.52 231.549 127.946C236.551 127.373 241.275 127.843 245.723 129.359C250.137 130.801 254.181 133.373 257.854 137.076C261.527 140.778 264.737 145.696 267.482 151.83C270.227 157.963 271.774 163.67 272.121 168.949C272.468 174.227 271.778 179.05 270.051 183.417C268.292 187.71 265.585 191.551 261.93 194.94C258.349 198.296 253.929 201.151 248.672 203.504L227.643 212.917ZM237.909 192.676L240.976 191.304C244.043 189.931 246.638 188.287 248.761 186.373C250.884 184.458 252.43 182.233 253.398 179.696C254.333 177.086 254.622 174.108 254.263 170.762C253.978 167.384 252.872 163.541 250.943 159.233C249.048 154.998 246.951 151.685 244.654 149.295C242.398 146.799 240.017 145.104 237.513 144.209C234.976 143.241 232.303 142.947 229.494 143.328C226.684 143.709 223.746 144.586 220.679 145.959L217.612 147.332L237.909 192.676Z" fill="white"/>
<path d="M288.405 185.719L256.44 114.307L301.128 94.3038L307.207 107.885L278.62 120.681L285.042 135.029L309.358 124.146L315.388 137.618L291.073 148.501L298.427 164.931L316.5 157L314.5 174L288.405 185.719Z" fill="white"/>
</g>
<defs>
<clipPath id="clip0">
<rect width="332.51" height="348" fill="white"/>
</clipPath>
</defs>
</svg>
