<?xml version="1.0" encoding="UTF-8" standalone="no"?>
<!DOCTYPE svg PUBLIC "-//W3C//DTD SVG 1.1//EN" "http://www.w3.org/Graphics/SVG/1.1/DTD/svg11.dtd">
<svg width="100%" height="100%" viewBox="0 0 270 264" version="1.1" xmlns="http://www.w3.org/2000/svg" xmlns:xlink="http://www.w3.org/1999/xlink" xml:space="preserve" xmlns:serif="http://www.serif.com/" style="fill-rule:evenodd;clip-rule:evenodd;stroke-linejoin:round;stroke-miterlimit:2;">
    <g transform="matrix(2.1987,0,0,2.14819,-161.824,-158.107)">
        <g>
            <path d="M99.4,151.2C99.4,158.3 93.6,164.1 86.5,164.1C79.4,164.1 73.6,158.3 73.6,151.2C73.6,144.1 79.4,138.3 86.5,138.3L99.4,138.3L99.4,151.2Z" style="fill:rgb(224,30,90);fill-rule:nonzero;"/>
            <path d="M105.9,151.2C105.9,144.1 111.7,138.3 118.8,138.3C125.9,138.3 131.7,144.1 131.7,151.2L131.7,183.5C131.7,190.6 125.9,196.4 118.8,196.4C111.7,196.4 105.9,190.6 105.9,183.5L105.9,151.2Z" style="fill:rgb(224,30,90);fill-rule:nonzero;"/>
        </g>
        <g>
            <path d="M118.8,99.4C111.7,99.4 105.9,93.6 105.9,86.5C105.9,79.4 111.7,73.6 118.8,73.6C125.9,73.6 131.7,79.4 131.7,86.5L131.7,99.4L118.8,99.4Z" style="fill:rgb(54,197,240);fill-rule:nonzero;"/>
            <path d="M118.8,105.9C125.9,105.9 131.7,111.7 131.7,118.8C131.7,125.9 125.9,131.7 118.8,131.7L86.5,131.7C79.4,131.7 73.6,125.9 73.6,118.8C73.6,111.7 79.4,105.9 86.5,105.9L118.8,105.9Z" style="fill:rgb(54,197,240);fill-rule:nonzero;"/>
        </g>
        <g>
            <path d="M170.6,118.8C170.6,111.7 176.4,105.9 183.5,105.9C190.6,105.9 196.4,111.7 196.4,118.8C196.4,125.9 190.6,131.7 183.5,131.7L170.6,131.7L170.6,118.8Z" style="fill:rgb(46,182,125);fill-rule:nonzero;"/>
            <path d="M164.1,118.8C164.1,125.9 158.3,131.7 151.2,131.7C144.1,131.7 138.3,125.9 138.3,118.8L138.3,86.5C138.3,79.4 144.1,73.6 151.2,73.6C158.3,73.6 164.1,79.4 164.1,86.5L164.1,118.8Z" style="fill:rgb(46,182,125);fill-rule:nonzero;"/>
        </g>
        <g>
            <path d="M151.2,170.6C158.3,170.6 164.1,176.4 164.1,183.5C164.1,190.6 158.3,196.4 151.2,196.4C144.1,196.4 138.3,190.6 138.3,183.5L138.3,170.6L151.2,170.6Z" style="fill:rgb(236,178,46);fill-rule:nonzero;"/>
            <path d="M151.2,164.1C144.1,164.1 138.3,158.3 138.3,151.2C138.3,144.1 144.1,138.3 151.2,138.3L183.5,138.3C190.6,138.3 196.4,144.1 196.4,151.2C196.4,158.3 190.6,164.1 183.5,164.1L151.2,164.1Z" style="fill:rgb(236,178,46);fill-rule:nonzero;"/>
        </g>
    </g>
</svg>
