<svg width="558" height="348" viewBox="0 0 558 348" fill="none" xmlns="http://www.w3.org/2000/svg">
<path d="M328.761 58.0199L316.89 244.435L203.386 0L328.761 58.0199ZM250.145 299.065L164.382 348L78.6163 299.065L96.0599 256.791H232.701L250.145 299.065ZM164.382 92.7838L209.322 202.04H119.439L164.382 92.7838ZM11.7494 244.435L0 58.0199L125.375 0L11.7494 244.435Z" fill="url(#paint0_linear_1231_227)"/>
<path d="M328.761 58.0199L316.89 244.435L203.386 0L328.761 58.0199ZM250.145 299.065L164.382 348L78.6163 299.065L96.0599 256.791H232.701L250.145 299.065ZM164.382 92.7838L209.322 202.04H119.439L164.382 92.7838ZM11.7494 244.435L0 58.0199L125.375 0L11.7494 244.435Z" fill="url(#paint1_linear_1231_227)"/>
<path d="M404.5 140.5V94.5H360.5V68.5H404.5V22.5H431.5V68.5H475.5V94.5H431.5V140.5H404.5Z" fill="#9C1AEE"/>
<path d="M366.04 237.16L365.272 240.04H371.944L371.224 237.16C370.808 235.592 370.376 233.928 369.928 232.168C369.512 230.408 369.096 228.712 368.68 227.08H368.488C368.104 228.744 367.704 230.456 367.288 232.216C366.904 233.944 366.488 235.592 366.04 237.16ZM354.712 253L364.504 221.704H373L382.792 253H375.304L373.384 245.56H363.832L361.912 253H354.712ZM394.132 253.576C391.188 253.576 388.82 252.472 387.028 250.264C385.268 248.024 384.388 244.968 384.388 241.096C384.388 238.504 384.852 236.28 385.78 234.424C386.74 232.536 387.972 231.096 389.476 230.104C391.012 229.112 392.612 228.616 394.276 228.616C395.588 228.616 396.692 228.84 397.588 229.288C398.484 229.736 399.332 230.344 400.132 231.112L399.844 227.464V219.352H406.9V253H401.14L400.66 250.648H400.468C399.636 251.48 398.66 252.184 397.54 252.76C396.42 253.304 395.284 253.576 394.132 253.576ZM395.956 247.816C396.724 247.816 397.412 247.656 398.02 247.336C398.66 247.016 399.268 246.456 399.844 245.656V235.912C399.236 235.336 398.58 234.936 397.876 234.712C397.204 234.488 396.548 234.376 395.908 234.376C394.788 234.376 393.796 234.92 392.932 236.008C392.068 237.064 391.636 238.728 391.636 241C391.636 243.336 392.004 245.064 392.74 246.184C393.508 247.272 394.58 247.816 395.956 247.816ZM418.623 253L410.607 229.192H417.711L420.783 240.424C421.103 241.608 421.407 242.824 421.695 244.072C422.015 245.288 422.335 246.52 422.655 247.768H422.847C423.135 246.52 423.423 245.288 423.711 244.072C424.031 242.824 424.351 241.608 424.671 240.424L427.791 229.192H434.559L426.783 253H418.623ZM443.339 253.576C441.163 253.576 439.435 252.888 438.155 251.512C436.875 250.104 436.235 248.392 436.235 246.376C436.235 243.88 437.291 241.928 439.403 240.52C441.515 239.112 444.923 238.168 449.627 237.688C449.563 236.632 449.243 235.8 448.667 235.192C448.123 234.552 447.195 234.232 445.883 234.232C444.891 234.232 443.883 234.424 442.859 234.808C441.835 235.192 440.747 235.72 439.595 236.392L437.051 231.736C438.555 230.808 440.155 230.056 441.851 229.48C443.579 228.904 445.371 228.616 447.227 228.616C450.267 228.616 452.603 229.496 454.235 231.256C455.867 233.016 456.683 235.72 456.683 239.368V253H450.923L450.443 250.552H450.251C449.259 251.448 448.187 252.184 447.035 252.76C445.915 253.304 444.683 253.576 443.339 253.576ZM445.739 248.104C446.539 248.104 447.227 247.928 447.803 247.576C448.411 247.192 449.019 246.696 449.627 246.088V241.912C447.131 242.232 445.403 242.744 444.443 243.448C443.483 244.12 443.003 244.92 443.003 245.848C443.003 246.616 443.243 247.192 443.723 247.576C444.235 247.928 444.907 248.104 445.739 248.104ZM462.651 253V229.192H468.411L468.891 232.216H469.083C470.107 231.256 471.227 230.424 472.443 229.72C473.691 228.984 475.115 228.616 476.715 228.616C479.307 228.616 481.179 229.48 482.331 231.208C483.515 232.904 484.107 235.24 484.107 238.216V253H477.051V239.128C477.051 237.4 476.811 236.216 476.331 235.576C475.883 234.936 475.147 234.616 474.123 234.616C473.227 234.616 472.459 234.824 471.819 235.24C471.179 235.624 470.475 236.184 469.707 236.92V253H462.651ZM500.488 253.576C498.28 253.576 496.28 253.096 494.488 252.136C492.728 251.144 491.32 249.72 490.264 247.864C489.24 245.976 488.728 243.72 488.728 241.096C488.728 238.44 489.304 236.184 490.456 234.328C491.608 232.472 493.128 231.064 495.016 230.104C496.904 229.112 498.936 228.616 501.112 228.616C502.584 228.616 503.88 228.856 505 229.336C506.152 229.816 507.176 230.424 508.072 231.16L504.76 235.72C503.64 234.792 502.568 234.328 501.544 234.328C499.848 234.328 498.488 234.936 497.464 236.152C496.472 237.368 495.976 239.016 495.976 241.096C495.976 243.144 496.472 244.792 497.464 246.04C498.488 247.256 499.768 247.864 501.304 247.864C502.072 247.864 502.824 247.704 503.56 247.384C504.296 247.032 504.968 246.616 505.576 246.136L508.36 250.744C507.176 251.768 505.896 252.504 504.52 252.952C503.144 253.368 501.8 253.576 500.488 253.576ZM521.823 253.576C519.551 253.576 517.503 253.08 515.679 252.088C513.855 251.096 512.415 249.672 511.359 247.816C510.303 245.96 509.775 243.72 509.775 241.096C509.775 238.504 510.303 236.28 511.359 234.424C512.447 232.568 513.855 231.144 515.583 230.152C517.311 229.128 519.119 228.616 521.007 228.616C523.279 228.616 525.151 229.128 526.623 230.152C528.127 231.144 529.247 232.504 529.983 234.232C530.751 235.928 531.135 237.864 531.135 240.04C531.135 240.648 531.103 241.256 531.039 241.864C530.975 242.44 530.911 242.872 530.847 243.16H516.591C516.911 244.888 517.631 246.168 518.751 247C519.871 247.8 521.215 248.2 522.783 248.2C524.479 248.2 526.191 247.672 527.919 246.616L530.271 250.888C529.055 251.72 527.695 252.376 526.191 252.856C524.687 253.336 523.231 253.576 521.823 253.576ZM516.543 238.504H525.135C525.135 237.192 524.815 236.12 524.175 235.288C523.567 234.424 522.559 233.992 521.151 233.992C520.063 233.992 519.087 234.376 518.223 235.144C517.359 235.88 516.799 237 516.543 238.504ZM544.507 253.576C541.563 253.576 539.195 252.472 537.403 250.264C535.643 248.024 534.763 244.968 534.763 241.096C534.763 238.504 535.227 236.28 536.155 234.424C537.115 232.536 538.347 231.096 539.851 230.104C541.387 229.112 542.987 228.616 544.651 228.616C545.963 228.616 547.067 228.84 547.963 229.288C548.859 229.736 549.707 230.344 550.507 231.112L550.219 227.464V219.352H557.275V253H551.515L551.035 250.648H550.843C550.011 251.48 549.035 252.184 547.915 252.76C546.795 253.304 545.659 253.576 544.507 253.576ZM546.331 247.816C547.099 247.816 547.787 247.656 548.395 247.336C549.035 247.016 549.643 246.456 550.219 245.656V235.912C549.611 235.336 548.955 234.936 548.251 234.712C547.579 234.488 546.923 234.376 546.283 234.376C545.163 234.376 544.171 234.92 543.307 236.008C542.443 237.064 542.011 238.728 542.011 241C542.011 243.336 542.379 245.064 543.115 246.184C543.883 247.272 544.955 247.816 546.331 247.816Z" fill="#495057"/>
<defs>
<linearGradient id="paint0_linear_1231_227" x1="82.4253" y1="316.434" x2="316.045" y2="192.039" gradientUnits="userSpaceOnUse">
<stop stop-color="#E40035"/>
<stop offset="0.24" stop-color="#F60A48"/>
<stop offset="0.35" stop-color="#F20755"/>
<stop offset="0.49" stop-color="#DC087D"/>
<stop offset="0.75" stop-color="#9717E7"/>
<stop offset="1" stop-color="#6C00F5"/>
</linearGradient>
<linearGradient id="paint1_linear_1231_227" x1="71.8766" y1="41.9602" x2="224.765" y2="237.371" gradientUnits="userSpaceOnUse">
<stop stop-color="#FF31D9"/>
<stop offset="1" stop-color="#FF5BE1" stop-opacity="0"/>
</linearGradient>
</defs>
</svg>
