<svg viewBox="0 0 187 200" xmlns="http://www.w3.org/2000/svg" fill-rule="evenodd" clip-rule="evenodd" stroke-linejoin="round" stroke-miterlimit="2"><path d="M93.1 0L0 33.2l14.2 123.1L93.1 200l78.9-43.7 14.2-123.1L93.1 0z" fill="#dd0031" fill-rule="nonzero"/><path d="M93.1 0v200l78.9-43.7 14.2-123.1L93.1 0z" fill="#c3002f" fill-rule="nonzero"/><path d="M88.7 57.1h8.8v-8.8h8.8v-7.7h35.2v7.7h8.8v8.8h8.8v35.2h-8.8v16.5h-8.8v8.8h-8.8v8.8h-8.8v7.7h-8.8v8.8h-8.8v7.7h-7.7v8.6c-1.8.1-3.3.2-4.8.2h-5.1v-8.8h-8.8v-7.7h-8.8v-8.8h-8.8v-8.8h-8.8v-8.8h-8.8v-7.7h-8.8V91.2h-8.8V57.1h8.8v-8.8h8.8v-7.7h35.2v7.7h8.8v8.8zm0 84.7h8.8V133h8.8v-7.7h8.8v-8.8h8.8v-8.8h8.8V91.2h7.7V65.9h-8.8v-7.7h-25.3v7.7h-7.7v8.8h-11v-8.8h-8.8v-7.7H53.5v7.7h-8.8v25.3h8.8v16.5h8.8v8.8h8.8v8.8h8.8v7.7h8.8v8.8z" fill="#fefefe" fill-rule="nonzero"/></svg>