<svg width="571" height="348" viewBox="0 0 571 348" fill="none" xmlns="http://www.w3.org/2000/svg">
<g clip-path="url(#clip0)">
<path d="M447.152 348L346.467 320.049L324.03 68.3903H570.576L548.115 320.01L447.152 348Z" fill="#264DE4"/>
<path d="M528.886 303.988L548.08 88.9671H447.303V326.606L528.886 303.988Z" fill="#2965F1"/>
<path d="M375.467 182.304L378.233 213.168H447.303V182.304H375.467Z" fill="#EBEBEB"/>
<path d="M369.908 119.832L372.714 150.698H447.303V119.832H447.196H369.908Z" fill="#EBEBEB"/>
<path d="M447.303 262.463L447.168 262.5L412.793 253.218L410.596 228.601H393.893H379.612L383.936 277.064L447.161 294.615L447.303 294.576V262.463Z" fill="#EBEBEB"/>
<path d="M382.053 0.00012207H419.436V15.6329H397.686V31.2657H419.436V46.8986H382.053V0.00012207Z" fill="black"/>
<path d="M426.912 0.00012207H464.295V13.5939H442.545V16.3126H464.295V47.5782H426.912V33.3048H448.662V30.5861H426.912V0.00012207Z" fill="black"/>
<path d="M471.772 0.00012207H509.155V13.5939H487.405V16.3126H509.155V47.5782H471.772V33.3048H493.522V30.5861H471.772V0.00012207Z" fill="black"/>
<path d="M518.941 182.304L524.513 119.832H447.196V150.698H490.688L487.88 182.304H447.196V213.169H485.203L481.62 253.198L447.196 262.489V294.601L510.471 277.064L510.935 271.849L518.188 190.592L518.941 182.304Z" fill="white"/>
<path d="M246.546 68.3903L224.085 320.01L123.122 348L22.4372 320.049L0 68.3903H246.546Z" fill="#E44D26"/>
<path d="M123.273 326.606L204.856 303.988L224.05 88.9671H123.273V326.606Z" fill="#F16529"/>
<path d="M79.6098 150.698H123.273V119.832H123.166H45.8782L46.617 128.113L54.203 213.169H123.273V182.304H82.4305L79.6098 150.698Z" fill="#EBEBEB"/>
<path d="M86.5657 228.601H69.8624H55.5822L59.9063 277.064L123.131 294.615L123.273 294.576V262.463L123.138 262.5L88.7631 253.218L86.5657 228.601Z" fill="#EBEBEB"/>
<path d="M22.9388 0.00012207H38.6239V15.497H52.9721V0.00012207H68.658V46.9285H52.9728V31.2141H38.6246V46.9285H22.9395V0.00012207H22.9388Z" fill="black"/>
<path d="M89.2844 15.5622H75.4759V0.00012207H118.786V15.5622H104.971V46.9285H89.2851V15.5622H89.2844Z" fill="black"/>
<path d="M125.659 0.00012207H142.015L152.075 16.4893L162.126 0.00012207H178.487V46.9285H162.867V23.6682L152.075 40.3538H151.806L141.007 23.6682V46.9285H125.659V0.00012207Z" fill="black"/>
<path d="M186.294 0.00012207H201.983V31.4166H224.041V46.9285H186.294V0.00012207Z" fill="black"/>
<path d="M123.166 213.168H161.173L157.59 253.198L123.166 262.489V294.6L186.441 277.064L186.905 271.849L194.158 190.592L194.911 182.304H186.594H123.166V213.168Z" fill="white"/>
<path d="M123.166 150.622V150.698H197.62H197.72L198.339 143.76L199.745 128.113L200.483 119.832H123.166V139.002V150.622Z" fill="white"/>
</g>
<defs>
<clipPath id="clip0">
<rect width="570.938" height="348" fill="white" transform="translate(0 0.00012207)"/>
</clipPath>
</defs>
</svg>
