<svg width="567" height="348" viewBox="0 0 567 348" fill="none" xmlns="http://www.w3.org/2000/svg">
<g clip-path="url(#clip0_1232_65)">
<path d="M404.687 0L243.911 57.942L268.271 271.614L404.687 348L541.973 271.614L566.855 57.942L404.687 0Z" fill="#03A9F4"/>
<path d="M404.687 0V38.628V214.368V348L541.973 271.614L566.855 57.942L404.687 0Z" fill="#039BE5"/>
<path d="M499.343 78.3H450.623C449.662 78.3 448.883 79.0791 448.883 80.04V128.76C448.883 129.721 449.662 130.5 450.623 130.5H499.343C500.304 130.5 501.083 129.721 501.083 128.76V80.04C501.083 79.0791 500.304 78.3 499.343 78.3Z" fill="white"/>
<path d="M499.343 147.9H450.623C449.662 147.9 448.883 148.679 448.883 149.64V198.36C448.883 199.321 449.662 200.1 450.623 200.1H499.343C500.304 200.1 501.083 199.321 501.083 198.36V149.64C501.083 148.679 500.304 147.9 499.343 147.9Z" fill="white"/>
<path d="M499.343 217.5H450.623C449.662 217.5 448.883 218.279 448.883 219.24V267.96C448.883 268.921 449.662 269.7 450.623 269.7H499.343C500.304 269.7 501.083 268.921 501.083 267.96V219.24C501.083 218.279 500.304 217.5 499.343 217.5Z" fill="white"/>
<path d="M429.743 217.5H381.023C380.062 217.5 379.283 218.279 379.283 219.24V267.96C379.283 268.921 380.062 269.7 381.023 269.7H429.743C430.704 269.7 431.483 268.921 431.483 267.96V219.24C431.483 218.279 430.704 217.5 429.743 217.5Z" fill="white"/>
<path d="M360.143 217.5H311.423C310.462 217.5 309.683 218.279 309.683 219.24V267.96C309.683 268.921 310.462 269.7 311.423 269.7H360.143C361.104 269.7 361.883 268.921 361.883 267.96V219.24C361.883 218.279 361.104 217.5 360.143 217.5Z" fill="white"/>
<path d="M360.143 147.9H311.423C310.462 147.9 309.683 148.679 309.683 149.64V198.36C309.683 199.321 310.462 200.1 311.423 200.1H360.143C361.104 200.1 361.883 199.321 361.883 198.36V149.64C361.883 148.679 361.104 147.9 360.143 147.9Z" fill="white"/>
<path d="M429.743 147.9H381.023C380.062 147.9 379.283 148.679 379.283 149.64V198.36C379.283 199.321 380.062 200.1 381.023 200.1H429.743C430.704 200.1 431.483 199.321 431.483 198.36V149.64C431.483 148.679 430.704 147.9 429.743 147.9Z" fill="white"/>
<path d="M328.761 58.0199L316.89 244.435L203.386 0L328.761 58.0199ZM250.145 299.065L164.382 348L78.6163 299.065L96.0599 256.791H232.701L250.145 299.065ZM164.382 92.7838L209.322 202.04H119.439L164.382 92.7838ZM11.7494 244.435L0 58.0199L125.375 0L11.7494 244.435Z" fill="url(#paint0_linear_1232_65)"/>
<path d="M328.761 58.0199L316.89 244.435L203.386 0L328.761 58.0199ZM250.145 299.065L164.382 348L78.6163 299.065L96.0599 256.791H232.701L250.145 299.065ZM164.382 92.7838L209.322 202.04H119.439L164.382 92.7838ZM11.7494 244.435L0 58.0199L125.375 0L11.7494 244.435Z" fill="url(#paint1_linear_1232_65)"/>
</g>
<defs>
<linearGradient id="paint0_linear_1232_65" x1="82.4253" y1="316.434" x2="316.045" y2="192.039" gradientUnits="userSpaceOnUse">
<stop stop-color="#E40035"/>
<stop offset="0.24" stop-color="#F60A48"/>
<stop offset="0.35" stop-color="#F20755"/>
<stop offset="0.49" stop-color="#DC087D"/>
<stop offset="0.75" stop-color="#9717E7"/>
<stop offset="1" stop-color="#6C00F5"/>
</linearGradient>
<linearGradient id="paint1_linear_1232_65" x1="71.8766" y1="41.9602" x2="224.765" y2="237.371" gradientUnits="userSpaceOnUse">
<stop stop-color="#FF31D9"/>
<stop offset="1" stop-color="#FF5BE1" stop-opacity="0"/>
</linearGradient>
<clipPath id="clip0_1232_65">
<rect width="567" height="348" fill="white"/>
</clipPath>
</defs>
</svg>
