<svg width="399" height="395" xmlns="http://www.w3.org/2000/svg"><g fill="none" fill-rule="evenodd"><path fill="#0072C4" d="M.777.49h398.08V394.3H.778z"/><path d="M237.123 244.734v109.175h-16.992V244.734h-39.592V229.44h97.96v15.293h-41.376zm59.254 103.482l6.202-15.633c3.172 2.323 7.123 4.263 11.852 5.82 4.73 1.558 8.963 2.337 12.702 2.337 6.627 0 11.95-1.813 15.972-5.438s6.033-8.241 6.033-13.849c0-4.19-1.119-8.085-3.356-11.682-2.238-3.596-7.86-7.519-16.865-11.767l-10.025-4.673c-8.497-3.964-14.43-8.666-17.8-14.103-3.37-5.438-5.055-11.98-5.055-19.626 0-9.29 3.285-16.992 9.856-23.11 6.57-6.117 15.01-9.175 25.318-9.175 13.764 0 23.336 2.237 28.717 6.712l-5.013 14.783c-2.266-1.643-5.72-3.229-10.365-4.758-4.645-1.53-8.95-2.294-12.914-2.294-5.778 0-10.323 1.643-13.637 4.928-3.313 3.285-4.97 7.505-4.97 12.659 0 3.172.595 6.06 1.784 8.666 1.19 2.606 2.847 4.786 4.97 6.542 2.125 1.756 6.472 4.22 13.042 7.392l10.195 4.842c8.497 4.022 14.458 8.822 17.885 14.401 3.426 5.58 5.14 12.674 5.14 21.283 0 9.346-3.753 17.275-11.257 23.79-7.505 6.513-17.545 9.77-30.12 9.77-11.044 0-20.475-2.606-28.291-7.817z" fill="#FFF"/></g></svg>