<svg width="329" height="348" viewBox="0 0 329 348" fill="none" xmlns="http://www.w3.org/2000/svg">
<path d="M328.761 58.0199L316.89 244.435L203.386 0L328.761 58.0199ZM250.145 299.065L164.382 348L78.6163 299.065L96.0599 256.791H232.701L250.145 299.065ZM164.382 92.7838L209.322 202.04H119.439L164.382 92.7838ZM11.7494 244.435L0 58.0199L125.375 0L11.7494 244.435Z" fill="url(#paint0_linear_1231_223)"/>
<path d="M328.761 58.0199L316.89 244.435L203.386 0L328.761 58.0199ZM250.145 299.065L164.382 348L78.6163 299.065L96.0599 256.791H232.701L250.145 299.065ZM164.382 92.7838L209.322 202.04H119.439L164.382 92.7838ZM11.7494 244.435L0 58.0199L125.375 0L11.7494 244.435Z" fill="url(#paint1_linear_1231_223)"/>
<defs>
<linearGradient id="paint0_linear_1231_223" x1="82.4253" y1="316.434" x2="316.045" y2="192.039" gradientUnits="userSpaceOnUse">
<stop stop-color="#E40035"/>
<stop offset="0.24" stop-color="#F60A48"/>
<stop offset="0.35" stop-color="#F20755"/>
<stop offset="0.49" stop-color="#DC087D"/>
<stop offset="0.75" stop-color="#9717E7"/>
<stop offset="1" stop-color="#6C00F5"/>
</linearGradient>
<linearGradient id="paint1_linear_1231_223" x1="71.8766" y1="41.9602" x2="224.765" y2="237.371" gradientUnits="userSpaceOnUse">
<stop stop-color="#FF31D9"/>
<stop offset="1" stop-color="#FF5BE1" stop-opacity="0"/>
</linearGradient>
</defs>
</svg>
