<svg width="348" height="348" viewBox="0 0 348 348" fill="none" xmlns="http://www.w3.org/2000/svg">
<g clip-path="url(#clip0)">
<path d="M348 0.000366211H0V348H348V0.000366211Z" fill="#F7DF1E"/>
<path d="M233.768 271.877C240.777 283.322 249.897 291.735 266.027 291.735C279.577 291.735 288.232 284.963 288.232 275.605C288.232 264.392 279.339 260.42 264.425 253.897L256.249 250.389C232.652 240.336 216.975 227.742 216.975 201.117C216.975 176.591 235.662 157.921 264.867 157.921C285.658 157.921 300.606 165.157 311.377 184.103L285.912 200.454C280.306 190.401 274.257 186.44 264.867 186.44C255.288 186.44 249.218 192.516 249.218 200.454C249.218 210.264 255.294 214.236 269.324 220.312L277.5 223.814C305.284 235.729 320.972 247.876 320.972 275.185C320.972 304.627 297.844 320.757 266.783 320.757C236.413 320.757 216.793 306.285 207.193 287.316L233.768 271.877ZM118.248 274.71C123.385 283.825 128.058 291.53 139.294 291.53C150.038 291.53 156.815 287.327 156.815 270.982V159.788H189.516V271.424C189.516 305.285 169.664 320.696 140.686 320.696C114.503 320.696 99.3401 307.146 91.6289 290.826L118.248 274.71Z" fill="black"/>
</g>
<defs>
<clipPath id="clip0">
<rect width="348" height="348" fill="white" transform="translate(0 0.000366211)"/>
</clipPath>
</defs>
</svg>
