<?xml version="1.0" encoding="UTF-8" standalone="no"?>
<!DOCTYPE svg PUBLIC "-//W3C//DTD SVG 1.1//EN" "http://www.w3.org/Graphics/SVG/1.1/DTD/svg11.dtd">
<svg width="100%" height="100%" viewBox="0 0 291 410" version="1.1" xmlns="http://www.w3.org/2000/svg" xmlns:xlink="http://www.w3.org/1999/xlink" xml:space="preserve" xmlns:serif="http://www.serif.com/" style="fill-rule:evenodd;clip-rule:evenodd;stroke-linejoin:round;stroke-miterlimit:2;">
    <g id="g3013" transform="matrix(1,0,0,1,-59.7064,2.27374e-14)">
        <path id="polygon2989" d="M349.894,80.496L323.457,376.655L204.622,409.6L86.115,376.702L59.706,80.496L349.894,80.496Z" style="fill:rgb(38,77,228);fill-rule:nonzero;"/>
        <path id="polygon2991" d="M300.824,357.797L323.416,104.715L204.8,104.715L204.8,384.418L300.824,357.797Z" style="fill:rgb(41,101,241);fill-rule:nonzero;"/>
        <path id="polygon2993" d="M120.248,214.574L123.504,250.902L204.8,250.902L204.8,214.574L120.248,214.574Z" style="fill:rgb(235,235,235);fill-rule:nonzero;"/>
        <path id="polygon2995" d="M204.8,141.044L113.706,141.044L117.008,177.373L204.8,177.373L204.8,141.044Z" style="fill:rgb(235,235,235);fill-rule:nonzero;"/>
        <path id="polygon2997" d="M204.8,346.719L204.8,308.922L204.641,308.965L164.182,298.04L161.595,269.066L125.127,269.066L130.217,326.107L204.633,346.766L204.8,346.719Z" style="fill:rgb(235,235,235);fill-rule:nonzero;"/>
        <path id="path2999" d="M128,-0L172,-0L172,18.4L146.4,18.4L146.4,36.8L172,36.8L172,55.2L128,55.2L128,-0Z" style="fill-rule:nonzero;"/>
        <path id="path3001" d="M180.8,-0L224.8,-0L224.8,16L199.2,16L199.2,19.2L224.8,19.2L224.8,56L180.8,56L180.8,39.2L206.4,39.2L206.4,36L180.8,36L180.8,-0Z" style="fill-rule:nonzero;"/>
        <path id="path3003" d="M233.6,-0L277.6,-0L277.6,16L252,16L252,19.2L277.6,19.2L277.6,56L233.6,56L233.6,39.2L259.2,39.2L259.2,36L233.6,36L233.6,-0Z" style="fill-rule:nonzero;"/>
        <path id="polygon3005" d="M249.409,250.902L245.192,298.017L204.674,308.953L204.674,346.748L279.15,326.107L279.696,319.97L288.233,224.329L289.119,214.574L295.678,141.044L204.674,141.044L204.674,177.373L255.865,177.373L252.559,214.574L204.674,214.574L204.674,250.902L249.409,250.902Z" style="fill:white;fill-rule:nonzero;"/>
    </g>
</svg>
