<?xml version="1.0" encoding="utf-8"?>
<!-- Generator: Adobe Illustrator 20.0.0, SVG Export Plug-In . SVG Version: 6.00 Build 0)  -->
<svg version="1.1" id="Layer_1" xmlns="http://www.w3.org/2000/svg" xmlns:xlink="http://www.w3.org/1999/xlink" x="0px" y="0px"
	 viewBox="0 0 640 320" enable-background="new 0 0 640 320" xml:space="preserve">
<g id="xfrm58_1_" transform="matrix(0.335998,0,0,0.335998,407.9057,266.2093)">
	<path id="path3190_1_" fill="#EC1B24" d="M-620.7-276.1c0-11.9-8.8-20.2-27.3-20.2h-37v40.7h37.9
		C-631.6-255.6-620.7-261.1-620.7-276.1z M-627.3-356.8c0-11.6-7.9-19.6-19.7-19.6h-38v38.5h37
		C-634.6-337.8-627.3-347.6-627.3-356.8z M-565.5-270.2c0,34.9-32.1,57.8-64.6,57.8h-105.8v-207h97c37.3,0,64.3,18.6,64.3,56.9
		c0,32.7-28.5,42.5-28.5,42.5C-603.1-319.8-565.5-311.2-565.5-270.2"/>
</g>
<g id="xfrm60_1_" transform="matrix(0.335998,0,0,0.335998,407.9057,266.2093)">
	<path id="path3194_1_" fill="#EC1B24" d="M-407.1-316.1c0-32.4-14.9-58.7-44.2-58.7c-29.4,0-44,26.3-44,58.7c0,32.7,14.6,59,44,59
		C-422-257.1-407.1-283.4-407.1-316.1z M-356.2-316.1c0,60.8-34.9,108.5-95.2,108.5c-60,0-95.2-47.7-95.2-108.5
		c0-60.5,35.2-108.5,95.2-108.5C-391.1-424.6-356.2-376.6-356.2-316.1"/>
</g>
<g id="xfrm62_1_" transform="matrix(0.335998,0,0,0.335998,407.9057,266.2093)">
	<path id="path3198_1_" fill="#EC1B24" d="M-178.4-275.1c0,45.6-41.2,67.6-80,67.6c-44.9,0-67.9-17.1-86.1-38.8l33-32.4
		c14,17.7,32.2,26.6,52.5,26.6c16.7,0,27.9-8.3,27.9-20.5c0-13.1-9.9-17.2-37-22.9l-7.3-1.5c-32.6-6.9-59.4-25.4-59.4-62.4
		c0-40.7,33.1-65.1,76.7-65.1c37,0,60.9,15.9,75.5,32.4l-32.2,31.8c-10-10.7-25.2-19.3-42.4-19.3c-11.8,0-25.2,5.5-25.2,19.3
		c0,12.5,13.9,17.1,31.5,20.8l7.3,1.5C-214.1-331.9-178.4-322.8-178.4-275.1"/>
</g>
<g id="xfrm64_1_" transform="matrix(0.335998,0,0,0.335998,407.9057,266.2093)">
	<path id="path3202_1_" fill="#EC1B24" d="M18.5-252.5c-21.2,30.6-40.9,44.9-81.8,44.9c-58.2,0-95.8-48.3-95.8-109.8
		c0-58.4,34-107,96.4-107c34.3,0,58.8,13.5,79.7,44.9l-41.8,27.8c-8.5-14.7-19.4-23.2-37.6-23.2c-23,0-45.2,20.6-45.2,57.5
		c0,41.3,24,60.2,46.7,60.2c19.7,0,28.8-9.8,37.3-23.8L18.5-252.5"/>
</g>
<g id="xfrm66_1_" transform="matrix(0.335998,0,0,0.335998,407.9057,266.2093)">
	<path id="path3206_1_" fill="#EC1B24" d="M212.6-212.5H158v-81.6H95.3v81.6H41v-207h54.2v76.1H158v-76.1h54.6V-212.5"/>
</g>
</svg>
