<svg width="359" height="360" viewBox="0 0 359 360" fill="none" xmlns="http://www.w3.org/2000/svg">
<path d="M179.499 98.5746C163.32 98.5746 147.504 103.372 134.052 112.361C120.6 121.349 110.115 134.125 103.924 149.072C97.7325 164.02 96.1125 180.467 99.2689 196.335C102.425 212.203 110.216 226.779 121.656 238.219C133.096 249.659 147.672 257.45 163.54 260.606C179.408 263.763 195.856 262.143 210.803 255.951C225.75 249.76 238.526 239.275 247.515 225.823C256.503 212.371 261.301 196.555 261.301 180.376C261.275 158.689 252.648 137.898 237.313 122.562C221.978 107.227 201.186 98.6005 179.499 98.5746Z" fill="#478AFF"/>
<path d="M296.952 105.827C317.531 105.827 334.214 89.1439 334.214 68.5644C334.214 47.9849 317.531 31.3019 296.952 31.3019C276.372 31.3019 259.689 47.9849 259.689 68.5644C259.689 89.1439 276.372 105.827 296.952 105.827Z" fill="#478AFF"/>
<path d="M342.833 106.022L341.271 102.604L338.829 105.436C332.72 112.368 324.995 117.686 316.339 120.918L313.898 121.797L314.874 124.238C328.034 155.886 329.7 191.141 319.582 223.888C309.465 256.635 288.203 284.807 259.486 303.517C230.769 322.226 196.408 330.292 162.365 326.315C128.322 322.338 96.7456 306.569 73.1139 281.744C49.4822 256.92 35.2865 224.605 32.9898 190.408C30.6931 156.211 40.4403 122.288 60.5402 94.5266C80.6401 66.7648 109.824 46.9152 143.03 38.4219C176.235 29.9285 211.366 33.3273 242.327 48.0285L244.623 49.1273L245.624 46.6855C249.273 38.1979 254.959 30.7416 262.179 24.9775L265.11 22.5357L261.764 20.8019C236.35 7.59304 208.116 0.73151 179.474 0.803261C140.695 0.808829 102.961 13.3726 71.9189 36.6141C40.8766 59.8557 18.1957 92.5252 7.27072 129.733C-3.6543 166.941 -2.23591 206.687 11.3136 243.021C24.8631 279.356 49.8151 310.326 82.4351 331.295C115.055 352.265 153.589 362.107 192.27 359.348C230.95 356.59 267.697 341.379 297.011 315.992C326.325 290.605 346.629 256.408 354.885 218.518C363.141 180.628 358.904 141.083 342.809 105.803L342.833 106.022Z" fill="#478AFF"/>
</svg>
