<svg width="392" height="372" viewBox="0 0 392 372" fill="none" xmlns="http://www.w3.org/2000/svg">
<path d="M271.615 259.802C286.081 258.306 297.055 245.839 296.556 230.879C296.058 215.92 283.587 203.952 268.622 203.952H267.624C252.16 204.45 240.188 217.416 240.687 232.874C241.186 240.354 244.179 246.837 248.668 251.324C231.708 284.735 205.768 309.169 166.859 329.614C140.421 343.576 112.985 348.563 85.5486 345.072C63.1009 342.08 45.6417 332.107 34.6673 315.652C18.7045 291.217 17.208 264.788 30.6766 238.359C40.1545 219.41 55.1196 205.448 64.5974 198.467C62.6021 191.984 59.6091 181.013 58.1126 173.035C-14.2187 225.394 -6.73617 296.204 15.2126 329.614C31.6742 354.547 65.0963 370.005 102.01 370.005C111.987 370.005 121.964 369.008 131.94 366.515C195.791 354.048 244.179 316.15 271.615 259.802V259.802Z" fill="#764ABC"/>
<path d="M359.41 197.968C321.499 153.587 265.629 129.153 201.778 129.153H193.796C189.307 120.177 179.829 114.193 169.353 114.193H168.356C152.892 114.692 140.92 127.657 141.419 143.115C141.917 158.075 154.388 170.043 169.353 170.043H170.351C181.326 169.544 190.803 162.563 194.794 153.088H203.773C241.685 153.088 277.601 164.059 310.025 185.501C334.967 201.957 352.925 223.399 362.902 249.33C371.382 270.273 370.883 290.718 361.904 308.172C347.937 334.6 324.492 349.062 293.564 349.062C273.61 349.062 254.655 343.078 244.678 338.59C239.191 343.576 229.214 351.555 222.23 356.542C243.68 366.515 265.629 372 286.58 372C334.468 372 369.886 345.571 383.354 319.142C397.821 290.22 396.823 240.354 359.41 197.968Z" fill="#764ABC"/>
<path d="M106.001 268.279C106.5 283.239 118.971 295.206 133.936 295.206H134.933C150.397 294.708 162.369 281.743 161.871 266.284C161.372 251.324 148.901 239.357 133.936 239.357H132.938C131.94 239.357 130.444 239.357 129.446 239.855C108.994 205.946 100.514 169.046 103.507 129.153C105.502 99.2333 115.479 73.303 132.938 51.8606C147.404 33.4102 175.339 24.4343 194.295 23.9357C247.172 22.9383 269.619 88.7614 271.116 115.19C277.601 116.686 288.575 120.177 296.058 122.67C290.072 41.8874 240.188 0 192.3 0C147.404 0 106.001 32.4129 89.5393 80.2842C66.5928 144.113 81.5579 205.448 109.493 253.818C106.999 257.308 105.502 262.794 106.001 268.279V268.279Z" fill="#764ABC"/>
</svg>
