<svg width="360" height="361" viewBox="0 0 360 361" fill="none" xmlns="http://www.w3.org/2000/svg">
<path d="M179.98 254.304C220.564 254.304 253.464 221.405 253.464 180.821C253.464 140.237 220.564 107.338 179.98 107.338C139.397 107.338 106.497 140.237 106.497 180.821C106.497 221.405 139.397 254.304 179.98 254.304Z" fill="#4E8EF7"/>
<path d="M329.943 56.1303C329.943 42.1728 318.624 30.8624 304.671 30.8624C298.591 30.8587 292.715 33.0591 288.133 37.0559C257.998 14.3302 220.539 0.840424 179.978 0.840424C80.7373 0.840424 0 81.5797 0 180.823C0 280.062 80.7393 360.803 179.98 360.803C279.222 360.803 359.959 280.062 359.959 180.823C359.959 140.263 346.471 102.799 323.747 72.6665C327.745 68.0853 329.946 62.2103 329.943 56.1303V56.1303ZM179.978 354.749C84.0759 354.749 6.05035 276.723 6.05035 180.819C6.05035 84.9184 84.0759 6.89279 179.98 6.89279C218.972 6.89279 255.006 19.7939 284.048 41.5498C281.021 45.808 279.396 50.9037 279.399 56.1283C279.399 70.0838 290.713 81.3942 304.667 81.3942C310.102 81.3942 315.12 79.6644 319.243 76.7451C340.999 105.785 353.9 141.819 353.9 180.817C353.904 276.723 275.883 354.747 179.978 354.747V354.749Z" fill="#4E8EF7"/>
</svg>
